<svg xmlns="http://www.w3.org/2000/svg" xmlns:xlink="http://www.w3.org/1999/xlink" width="48.26mm" height="71.12mm" viewBox="4010 3365.5 190 280"><title></title><style type="text/css">
*[layerid="1"] {stroke:#FF0000;fill:#FF0000;}
*[layerid="2"] {stroke:#0000FF;fill:#0000FF;}
*[layerid="3"] {stroke:#FFCC00;fill:#FFCC00;}
*[layerid="4"] {stroke:#66CC33;fill:#66CC33;}
*[layerid="5"] {stroke:#808080;fill:#808080;}
*[layerid="6"] {stroke:#800000;fill:#800000;}
*[layerid="7"] {stroke:#800080;fill:#800080;stroke-opacity:0.7;fill-opacity:0.7;}
*[layerid="8"] {stroke:#AA00FF;fill:#AA00FF;stroke-opacity:0.7;fill-opacity:0.7;}
*[layerid="9"] {stroke:#6464FF;fill:#6464FF;}
*[layerid="10"] {stroke:#FF00FF;fill:#FF00FF;}
*[layerid="11"] {stroke:#C0C0C0;fill:#C0C0C0;}
*[layerid="12"] {stroke:#FFFFFF;fill:#FFFFFF;}
*[layerid="13"] {stroke:#33CC99;fill:#33CC99;}
*[layerid="14"] {stroke:#5555FF;fill:#5555FF;}
*[layerid="15"] {stroke:#F022F0;fill:#F022F0;}
*[layerid="19"] {stroke:#66CCFF;fill:#66CCFF;}
*[layerid="21"] {stroke:#999966;fill:#999966;}
*[layerid="22"] {stroke:#008000;fill:#008000;}
*[layerid="23"] {stroke:#00FF00;fill:#00FF00;}
*[layerid="24"] {stroke:#BC8E00;fill:#BC8E00;}
*[layerid="25"] {stroke:#70DBFA;fill:#70DBFA;}
*[layerid="26"] {stroke:#00CC66;fill:#00CC66;}
*[layerid="27"] {stroke:#9966FF;fill:#9966FF;}
*[layerid="28"] {stroke:#800080;fill:#800080;}
*[layerid="29"] {stroke:#008080;fill:#008080;}
*[layerid="30"] {stroke:#15935F;fill:#15935F;}
*[layerid="31"] {stroke:#000080;fill:#000080;}
*[layerid="32"] {stroke:#00B400;fill:#00B400;}
*[layerid="33"] {stroke:#2E4756;fill:#2E4756;}
*[layerid="34"] {stroke:#99842F;fill:#99842F;}
*[layerid="35"] {stroke:#FFFFAA;fill:#FFFFAA;}
*[layerid="36"] {stroke:#99842F;fill:#99842F;}
*[layerid="37"] {stroke:#2E4756;fill:#2E4756;}
*[layerid="38"] {stroke:#3535FF;fill:#3535FF;}
*[layerid="39"] {stroke:#8000BC;fill:#8000BC;}
*[layerid="40"] {stroke:#43AE5F;fill:#43AE5F;}
*[layerid="41"] {stroke:#C3ECCE;fill:#C3ECCE;}
*[layerid="42"] {stroke:#728978;fill:#728978;}
*[layerid="43"] {stroke:#39503F;fill:#39503F;}
*[layerid="44"] {stroke:#0C715D;fill:#0C715D;}
*[layerid="45"] {stroke:#5A8A80;fill:#5A8A80;}
*[layerid="46"] {stroke:#2B937E;fill:#2B937E;}
*[layerid="47"] {stroke:#23999D;fill:#23999D;}
*[layerid="48"] {stroke:#45B4E3;fill:#45B4E3;}
*[layerid="49"] {stroke:#215DA1;fill:#215DA1;}
*[layerid="50"] {stroke:#4564D7;fill:#4564D7;}
*[layerid="51"] {stroke:#6969E9;fill:#6969E9;}
*[layerid="52"] {stroke:#9069E9;fill:#9069E9;}
*[layerid="99"] {stroke:#00CCCC;fill:#00CCCC;stroke-opacity:0.6;fill-opacity:0.6;}
*[layerid="100"] {stroke:#CC9999;fill:#CC9999;}
*[layerid="101"] {stroke:#66FFCC;fill:#66FFCC;}
*[layerid="Hole"] {stroke:#222222;fill:#222222;}
*[layerid="DRCError"] {stroke:#FAD609;fill:#FAD609;}
*[fill="none"] {fill: none;}
*[stroke="none"] {stroke: none;}
path, polyline, polygon, line {stroke-linecap:round;}
g[c_partid="part_pad"][layerid="1"] ellipse:not([c_etype="pad_outer"]) {fill:#FF0000;}
g[c_partid="part_pad"][layerid="1"] polygon:not([c_etype="pad_outer"]) {fill:#FF0000;}
g[c_partid="part_pad"][layerid="1"] polyline:not([c_etype="pad_outer"]) {stroke:#FF0000;}
g[c_partid="part_pad"][layerid="2"] ellipse:not([c_etype="pad_outer"]) {fill:#0000FF;}
g[c_partid="part_pad"][layerid="2"] polygon:not([c_etype="pad_outer"]) {fill:#0000FF;}
g[c_partid="part_pad"][layerid="2"] polyline:not([c_etype="pad_outer"]) {stroke:#0000FF;}
g[c_partid="part_pad"][layerid="11"] ellipse:not([c_etype="pad_outer"]) {fill:#C0C0C0;}
g[c_partid="part_pad"][layerid="11"] polygon:not([c_etype="pad_outer"]) {fill:#C0C0C0;}
g[c_partid="part_pad"][layerid="11"] polyline:not([c_etype="pad_outer"]) {stroke:#C0C0C0;}
g[c_partid="part_pad"][layerid="11"] circle {fill:#222222;}
g[c_partid="part_pad"][layerid="11"] > polyline:nth-of-type(2) {stroke:#222222;}
g[c_partid="part_pad"][layerid="11"][c_shape="ELLIPSE"]  polyline:nth-last-of-type(1) {stroke:#222222;}
g[c_partid="part_pad"][layerid="11"][c_shape="RECT"]  polyline:nth-last-of-type(1) {stroke:#222222;}
g[c_partid="part_pad"][layerid="11"][c_shape="POLYGON"]  polyline:nth-last-of-type(1) {stroke:#222222;}
g[c_partid="part_via"] > * + circle, #gCurParts g[c_partid="part_via"] > * + circle {fill:#222222;}
g[c_partid="part_pad"] > polygon[c_etype="pad_outer"], #gCurParts g[c_partid="part_pad"] > polygon[c_etype="pad_outer"] {stroke-linejoin: miter;stroke-miterlimit: 100;}
g[c_partid="part_hole"] > circle {fill: #222222;}path, polyline, polygon {stroke-linejoin:round;}
rect, circle, ellipse, polyline, line, polygon, path {shape-rendering:crispEdges;}
</style>
<rect x="4010" y="3365.5" width="190" height="280" fill="#000000" stroke="none"/><polyline points="4089.8407 3609.8307 4070.1557 3609.8307 4070.1557 3601.1693 4089.8407 3601.1693 4089.8407 3609.8307" stroke-width="0.8999986"  stroke-linecap="round" fill="none" layerid="3" net="" id="gge1779" locked="0" /><polyline points="4126.1811 3559.063 4126.1811 3559.2731" stroke-width="1"  stroke-linecap="round" fill="none" layerid="3" net="" id="gge1532" locked="0" /><polyline points="4126.2576 3566.7504 4126.2576 3566.7017" stroke-width="1"  stroke-linecap="round" fill="none" layerid="3" net="" id="gge1533" locked="0" /><polyline points="4117.2441 3557.4882 4117.2441 3559.4882" stroke-width="1"  stroke-linecap="round" fill="none" layerid="3" net="" id="gge1534" locked="0" /><polyline points="4116.2441 3558.4882 4118.2441 3558.4882" stroke-width="1"  stroke-linecap="round" fill="none" layerid="3" net="" id="gge1535" locked="0" /><polyline points="4151.1811 3559.063 4151.1811 3559.2731" stroke-width="1"  stroke-linecap="round" fill="none" layerid="3" net="" id="gge1560" locked="0" /><polyline points="4151.2576 3566.7504 4151.2576 3566.7017" stroke-width="1"  stroke-linecap="round" fill="none" layerid="3" net="" id="gge1561" locked="0" /><polyline points="4142.2441 3557.4882 4142.2441 3559.4882" stroke-width="1"  stroke-linecap="round" fill="none" layerid="3" net="" id="gge1562" locked="0" /><polyline points="4141.2441 3558.4882 4143.2441 3558.4882" stroke-width="1"  stroke-linecap="round" fill="none" layerid="3" net="" id="gge1563" locked="0" /><polyline points="4122.5 3598.5 4122.5 3595.5" stroke-width="1"  stroke-linecap="round" fill="none" layerid="3" net="" id="gge1584" locked="0" /><polyline points="4122.5 3595.5 4122.5 3592.5" stroke-width="1"  stroke-linecap="round" fill="none" layerid="3" net="" id="gge1585" locked="0" /><polyline points="4123.5 3595.5 4122.5 3595.5" stroke-width="1"  stroke-linecap="round" fill="none" layerid="3" net="" id="gge1586" locked="0" /><polyline points="4122.5 3595.5 4121.5 3595.5" stroke-width="1"  stroke-linecap="round" fill="none" layerid="3" net="" id="gge1587" locked="0" /><polyline points="4142.5 3600 4142.5 3603" stroke-width="1"  stroke-linecap="round" fill="none" layerid="3" net="" id="gge1604" locked="0" /><polyline points="4142.5 3603 4142.5 3606" stroke-width="1"  stroke-linecap="round" fill="none" layerid="3" net="" id="gge1605" locked="0" /><polyline points="4141.5 3603 4142.5 3603" stroke-width="1"  stroke-linecap="round" fill="none" layerid="3" net="" id="gge1606" locked="0" /><polyline points="4142.5 3603 4143.5 3603" stroke-width="1"  stroke-linecap="round" fill="none" layerid="3" net="" id="gge1607" locked="0" /><polyline points="4130.1593 3578.6693 4149.8443 3578.6693 4149.8443 3587.3307 4130.1593 3587.3307 4130.1593 3578.6693" stroke-width="0.8999986"  stroke-linecap="round" fill="none" layerid="3" net="" id="gge1624" locked="0" /><polyline points="4059.8125 3419.87 4063.4665 3419.87 4063.4665 3491.13 4036.1905 3491.13 4036.1905 3419.87 4059.8125 3419.87" stroke-width="1"  stroke-linecap="round" fill="none" layerid="3" net="" id="gge111" locked="0" /><polyline points="4059.8125 3499.87 4063.4665 3499.87 4063.4665 3571.13 4036.1905 3571.13 4036.1905 3499.87 4059.8125 3499.87" stroke-width="1"  stroke-linecap="round" fill="none" layerid="3" net="" id="gge321" locked="0" /><polyline points="4085 3400.5 4075 3400.5 4075 3390.5 4085 3390.5 4085 3398" stroke-width="0.8"  stroke-linecap="round" fill="none" layerid="3" net="" id="gge475" locked="0" /><polyline points="4085 3400.5 4085 3398" stroke-width="0.79921"  stroke-linecap="round" fill="none" layerid="3" net="" id="gge476" locked="0" /><polyline points="4085 3580.5 4075 3580.5 4075 3570.5 4085 3570.5 4085 3578" stroke-width="0.8"  stroke-linecap="round" fill="none" layerid="3" net="" id="gge493" locked="0" /><polyline points="4085 3580.5 4085 3578" stroke-width="0.79921"  stroke-linecap="round" fill="none" layerid="3" net="" id="gge494" locked="0" /><polyline points="4185 3620.4995 4185 3630.4995 4025 3630.4995 4025 3620.4995 4032.5 3620.4995" stroke-width="0.8"  stroke-linecap="round" fill="none" layerid="3" net="" id="gge511" locked="0" /><polyline points="4185 3620.4995 4032.5 3620.4995" stroke-width="0.79921"  stroke-linecap="round" fill="none" layerid="3" net="" id="gge512" locked="0" /><polyline points="4185 3580.5 4185 3610.5 4175 3610.5" stroke-width="1"  stroke-linecap="round" fill="none" layerid="3" net="" id="gge619" locked="0" /><polyline points="4175 3580.5 4175 3610.5" stroke-width="1"  stroke-linecap="round" fill="none" layerid="3" net="" id="gge620" locked="0" /><polyline points="4185 3580.5 4175 3580.5" stroke-width="1"  stroke-linecap="round" fill="none" layerid="3" net="" id="gge621" locked="0" /><polyline points="4185 3590.6907 4175 3590.6907" stroke-width="1"  stroke-linecap="round" fill="none" layerid="3" net="" id="gge622" locked="0" /><polyline points="4132.2269 3392.6654 4112.5418 3392.6654" stroke-width="1"  stroke-linecap="round" fill="none" layerid="3" net="" id="gge651" locked="0" /><polyline points="4167.66 3392.6654 4147.9749 3392.6654" stroke-width="1"  stroke-linecap="round" fill="none" layerid="3" net="" id="gge652" locked="0" /><polyline points="4112.5418 3538.3346 4167.66 3538.3346" stroke-width="1"  stroke-linecap="round" fill="none" layerid="3" net="" id="gge653" locked="0" /><polyline points="4167.66 3538.3346 4167.66 3533.1955" stroke-width="1"  stroke-linecap="round" fill="none" layerid="3" net="" id="gge654" locked="0" /><polyline points="4167.66 3527.8045 4167.66 3523.1955" stroke-width="1"  stroke-linecap="round" fill="none" layerid="3" net="" id="gge655" locked="0" /><polyline points="4167.66 3517.8045 4167.66 3513.1955" stroke-width="1"  stroke-linecap="round" fill="none" layerid="3" net="" id="gge656" locked="0" /><polyline points="4167.66 3507.8045 4167.66 3503.1955" stroke-width="1"  stroke-linecap="round" fill="none" layerid="3" net="" id="gge657" locked="0" /><polyline points="4167.66 3497.8045 4167.66 3493.1955" stroke-width="1"  stroke-linecap="round" fill="none" layerid="3" net="" id="gge658" locked="0" /><polyline points="4167.66 3487.8045 4167.66 3483.1955" stroke-width="1"  stroke-linecap="round" fill="none" layerid="3" net="" id="gge659" locked="0" /><polyline points="4167.66 3477.8045 4167.66 3473.1955" stroke-width="1"  stroke-linecap="round" fill="none" layerid="3" net="" id="gge660" locked="0" /><polyline points="4167.66 3467.8045 4167.66 3463.1955" stroke-width="1"  stroke-linecap="round" fill="none" layerid="3" net="" id="gge661" locked="0" /><polyline points="4167.66 3457.8045 4167.66 3453.1955" stroke-width="1"  stroke-linecap="round" fill="none" layerid="3" net="" id="gge662" locked="0" /><polyline points="4167.66 3447.8045 4167.66 3443.1955" stroke-width="1"  stroke-linecap="round" fill="none" layerid="3" net="" id="gge663" locked="0" /><polyline points="4167.66 3437.8045 4167.66 3433.1955" stroke-width="1"  stroke-linecap="round" fill="none" layerid="3" net="" id="gge664" locked="0" /><polyline points="4167.66 3427.8045 4167.66 3423.1955" stroke-width="1"  stroke-linecap="round" fill="none" layerid="3" net="" id="gge665" locked="0" /><polyline points="4167.66 3417.8045 4167.66 3413.1955" stroke-width="1"  stroke-linecap="round" fill="none" layerid="3" net="" id="gge666" locked="0" /><polyline points="4167.66 3407.8045 4167.66 3403.1955" stroke-width="1"  stroke-linecap="round" fill="none" layerid="3" net="" id="gge667" locked="0" /><polyline points="4167.66 3397.8045 4167.66 3392.6654" stroke-width="1"  stroke-linecap="round" fill="none" layerid="3" net="" id="gge668" locked="0" /><polyline points="4112.5418 3538.3346 4112.5418 3532.9092" stroke-width="1"  stroke-linecap="round" fill="none" layerid="3" net="" id="gge669" locked="0" /><polyline points="4112.5418 3528.0908 4112.5418 3522.9092" stroke-width="1"  stroke-linecap="round" fill="none" layerid="3" net="" id="gge670" locked="0" /><polyline points="4112.5418 3518.0908 4112.5418 3512.9092" stroke-width="1"  stroke-linecap="round" fill="none" layerid="3" net="" id="gge671" locked="0" /><polyline points="4112.5418 3508.0908 4112.5418 3502.9092" stroke-width="1"  stroke-linecap="round" fill="none" layerid="3" net="" id="gge672" locked="0" /><polyline points="4112.5418 3498.0908 4112.5418 3492.9092" stroke-width="1"  stroke-linecap="round" fill="none" layerid="3" net="" id="gge673" locked="0" /><polyline points="4112.5418 3488.0908 4112.5418 3482.9092" stroke-width="1"  stroke-linecap="round" fill="none" layerid="3" net="" id="gge674" locked="0" /><polyline points="4112.5418 3478.0908 4112.5418 3472.9092" stroke-width="1"  stroke-linecap="round" fill="none" layerid="3" net="" id="gge675" locked="0" /><polyline points="4112.5418 3468.0908 4112.5418 3462.9092" stroke-width="1"  stroke-linecap="round" fill="none" layerid="3" net="" id="gge676" locked="0" /><polyline points="4112.5418 3458.0908 4112.5418 3452.9092" stroke-width="1"  stroke-linecap="round" fill="none" layerid="3" net="" id="gge677" locked="0" /><polyline points="4112.5418 3448.0908 4112.5418 3442.9092" stroke-width="1"  stroke-linecap="round" fill="none" layerid="3" net="" id="gge678" locked="0" /><polyline points="4112.5418 3438.0908 4112.5418 3432.9092" stroke-width="1"  stroke-linecap="round" fill="none" layerid="3" net="" id="gge679" locked="0" /><polyline points="4112.5418 3428.0908 4112.5418 3422.9092" stroke-width="1"  stroke-linecap="round" fill="none" layerid="3" net="" id="gge680" locked="0" /><polyline points="4112.5418 3418.0908 4112.5418 3412.9092" stroke-width="1"  stroke-linecap="round" fill="none" layerid="3" net="" id="gge681" locked="0" /><polyline points="4112.5418 3408.0908 4112.5418 3404.95" stroke-width="1"  stroke-linecap="round" fill="none" layerid="3" net="" id="gge682" locked="0" /><polyline points="4112.5418 3396.05 4112.5418 3392.6654" stroke-width="1"  stroke-linecap="round" fill="none" layerid="3" net="" id="gge683" locked="0" /><polyline points="4055 3390.5 4055 3400.5 4035 3400.5 4035 3390.5 4042.5 3390.5" stroke-width="0.8"  stroke-linecap="round" fill="none" layerid="3" net="" id="gge859" locked="0" /><polyline points="4055 3390.5 4042.5 3390.5" stroke-width="0.79921"  stroke-linecap="round" fill="none" layerid="3" net="" id="gge860" locked="0" /><polyline points="4075 3590.5 4075 3600.5 4035 3600.5 4035 3590.5 4042.5 3590.5" stroke-width="0.8"  stroke-linecap="round" fill="none" layerid="3" net="" id="gge875" locked="0" /><polyline points="4075 3590.5 4042.5 3590.5" stroke-width="0.79921"  stroke-linecap="round" fill="none" layerid="3" net="" id="gge876" locked="0" /><g c_partid="part_pcbtext" c_etype="pinpart" c_origin="4047,3389" c_rotation="0" c_mirror="0" id="gge1709" locked="0" layerid="3" c_shapetype="group" ><path c_fontsize="8" c_fontfamily="" c_text="I2C" d="M 4047 3380.93L4047 3388.56 M 4049.76 3382.75L4049.76 3382.38 L4050.13 3381.65 L4050.49 3381.29 L4051.22 3380.93 L4052.67 3380.93 L4053.4 3381.29 L4053.76 3381.65 L4054.13 3382.38 L4054.13 3383.11 L4053.76 3383.84 L4053.04 3384.93 L4049.4 3388.56 L4054.49 3388.56 M 4062.35 3382.75L4061.98 3382.02 L4061.25 3381.29 L4060.53 3380.93 L4059.07 3380.93 L4058.35 3381.29 L4057.62 3382.02 L4057.25 3382.75 L4056.89 3383.84 L4056.89 3385.65 L4057.25 3386.75 L4057.62 3387.47 L4058.35 3388.2 L4059.07 3388.56 L4060.53 3388.56 L4061.25 3388.2 L4061.98 3387.47 L4062.35 3386.75 " fill="none"  stroke-width="0.5"  /></g><g c_partid="part_pcbtext" c_etype="pinpart" c_origin="4120,3390.5" c_rotation="0" c_mirror="0" id="gge1716" locked="0" layerid="3" c_shapetype="group" ><path c_fontsize="8" c_fontfamily="" c_text="28C256" d="M 4120.36 3384.25 L 4120.36 3383.88 L 4120.73 3383.15 L 4121.09 3382.79 L 4121.82 3382.43 L 4123.27 3382.43 L 4124 3382.79 L 4124.36 3383.15 L 4124.73 3383.88 L 4124.73 3384.61 L 4124.36 3385.34 L 4123.64 3386.43 L 4120 3390.06 L 4125.09 3390.06 M 4129.31 3382.43 L 4128.22 3382.79 L 4127.85 3383.52 L 4127.85 3384.25 L 4128.22 3384.97 L 4128.95 3385.34 L 4130.4 3385.7 L 4131.49 3386.06 L 4132.22 3386.79 L 4132.58 3387.52 L 4132.58 3388.61 L 4132.22 3389.34 L 4131.85 3389.7 L 4130.76 3390.06 L 4129.31 3390.06 L 4128.22 3389.7 L 4127.85 3389.34 L 4127.49 3388.61 L 4127.49 3387.52 L 4127.85 3386.79 L 4128.58 3386.06 L 4129.67 3385.7 L 4131.13 3385.34 L 4131.85 3384.97 L 4132.22 3384.25 L 4132.22 3383.52 L 4131.85 3382.79 L 4130.76 3382.43 L 4129.31 3382.43 M 4140.44 3384.25 L 4140.07 3383.52 L 4139.35 3382.79 L 4138.62 3382.43 L 4137.16 3382.43 L 4136.44 3382.79 L 4135.71 3383.52 L 4135.35 3384.25 L 4134.98 3385.34 L 4134.98 3387.15 L 4135.35 3388.25 L 4135.71 3388.97 L 4136.44 3389.7 L 4137.16 3390.06 L 4138.62 3390.06 L 4139.35 3389.7 L 4140.07 3388.97 L 4140.44 3388.25 M 4143.2 3384.25 L 4143.2 3383.88 L 4143.56 3383.15 L 4143.93 3382.79 L 4144.65 3382.43 L 4146.11 3382.43 L 4146.84 3382.79 L 4147.2 3383.15 L 4147.56 3383.88 L 4147.56 3384.61 L 4147.2 3385.34 L 4146.47 3386.43 L 4142.84 3390.06 L 4147.93 3390.06 M 4154.69 3382.43 L 4151.05 3382.43 L 4150.69 3385.7 L 4151.05 3385.34 L 4152.15 3384.97 L 4153.24 3384.97 L 4154.33 3385.34 L 4155.05 3386.06 L 4155.42 3387.15 L 4155.42 3387.88 L 4155.05 3388.97 L 4154.33 3389.7 L 4153.24 3390.06 L 4152.15 3390.06 L 4151.05 3389.7 L 4150.69 3389.34 L 4150.33 3388.61 M 4162.18 3383.52 L 4161.82 3382.79 L 4160.73 3382.43 L 4160 3382.43 L 4158.91 3382.79 L 4158.18 3383.88 L 4157.82 3385.7 L 4157.82 3387.52 L 4158.18 3388.97 L 4158.91 3389.7 L 4160 3390.06 L 4160.36 3390.06 L 4161.45 3389.7 L 4162.18 3388.97 L 4162.55 3387.88 L 4162.55 3387.52 L 4162.18 3386.43 L 4161.45 3385.7 L 4160.36 3385.34 L 4160 3385.34 L 4158.91 3385.7 L 4158.18 3386.43 L 4157.82 3387.52" fill="none"  stroke-width="0.5"  /></g><g c_partid="part_pcbtext" c_etype="pinpart" c_origin="4055,3473" c_rotation="90" c_mirror="0" id="gge1720" locked="0" layerid="3" c_shapetype="group" ><path c_fontsize="8" c_fontfamily="" c_text="23017" d="M 4048.75 3472.64 L 4048.38 3472.64 L 4047.65 3472.27 L 4047.29 3471.91 L 4046.93 3471.18 L 4046.93 3469.73 L 4047.29 3469 L 4047.65 3468.64 L 4048.38 3468.27 L 4049.11 3468.27 L 4049.84 3468.64 L 4050.93 3469.36 L 4054.56 3473 L 4054.56 3467.91 M 4046.93 3464.78 L 4046.93 3460.78 L 4049.84 3462.96 L 4049.84 3461.87 L 4050.2 3461.15 L 4050.56 3460.78 L 4051.65 3460.42 L 4052.38 3460.42 L 4053.47 3460.78 L 4054.2 3461.51 L 4054.56 3462.6 L 4054.56 3463.69 L 4054.2 3464.78 L 4053.84 3465.15 L 4053.11 3465.51 M 4046.93 3455.84 L 4047.29 3456.93 L 4048.38 3457.65 L 4050.2 3458.02 L 4051.29 3458.02 L 4053.11 3457.65 L 4054.2 3456.93 L 4054.56 3455.84 L 4054.56 3455.11 L 4054.2 3454.02 L 4053.11 3453.29 L 4051.29 3452.93 L 4050.2 3452.93 L 4048.38 3453.29 L 4047.29 3454.02 L 4046.93 3455.11 L 4046.93 3455.84 M 4048.38 3450.53 L 4048.02 3449.8 L 4046.93 3448.71 L 4054.56 3448.71 M 4046.93 3441.22 L 4054.56 3444.85 M 4046.93 3446.31 L 4046.93 3441.22" fill="none"  stroke-width="0.5"  /></g><g c_partid="part_pcbtext" c_etype="pinpart" c_origin="4055,3550.5" c_rotation="90" c_mirror="0" id="gge1724" locked="0" layerid="3" c_shapetype="group" ><path c_fontsize="8" c_fontfamily="" c_text="23017" d="M 4048.75 3550.14 L 4048.38 3550.14 L 4047.65 3549.77 L 4047.29 3549.41 L 4046.93 3548.68 L 4046.93 3547.23 L 4047.29 3546.5 L 4047.65 3546.14 L 4048.38 3545.77 L 4049.11 3545.77 L 4049.84 3546.14 L 4050.93 3546.86 L 4054.56 3550.5 L 4054.56 3545.41 M 4046.93 3542.28 L 4046.93 3538.28 L 4049.84 3540.46 L 4049.84 3539.37 L 4050.2 3538.65 L 4050.56 3538.28 L 4051.65 3537.92 L 4052.38 3537.92 L 4053.47 3538.28 L 4054.2 3539.01 L 4054.56 3540.1 L 4054.56 3541.19 L 4054.2 3542.28 L 4053.84 3542.65 L 4053.11 3543.01 M 4046.93 3533.34 L 4047.29 3534.43 L 4048.38 3535.15 L 4050.2 3535.52 L 4051.29 3535.52 L 4053.11 3535.15 L 4054.2 3534.43 L 4054.56 3533.34 L 4054.56 3532.61 L 4054.2 3531.52 L 4053.11 3530.79 L 4051.29 3530.43 L 4050.2 3530.43 L 4048.38 3530.79 L 4047.29 3531.52 L 4046.93 3532.61 L 4046.93 3533.34 M 4048.38 3528.03 L 4048.02 3527.3 L 4046.93 3526.21 L 4054.56 3526.21 M 4046.93 3518.72 L 4054.56 3522.35 M 4046.93 3523.81 L 4046.93 3518.72" fill="none"  stroke-width="0.5"  /></g><g c_partid="part_pcbtext" c_etype="pinpart" c_origin="4095,3568" c_rotation="0" c_mirror="0" id="gge1728" locked="0" layerid="3" c_shapetype="group" ><path c_fontsize="8" c_fontfamily="" c_text="WR" d="M 4095 3559.93 L 4096.82 3567.56 M 4098.64 3559.93 L 4096.82 3567.56 M 4098.64 3559.93 L 4100.45 3567.56 M 4102.27 3559.93 L 4100.45 3567.56 M 4104.67 3559.93 L 4104.67 3567.56 M 4104.67 3559.93 L 4107.95 3559.93 L 4109.04 3560.29 L 4109.4 3560.65 L 4109.76 3561.38 L 4109.76 3562.11 L 4109.4 3562.84 L 4109.04 3563.2 L 4107.95 3563.56 L 4104.67 3563.56 M 4107.22 3563.56 L 4109.76 3567.56" fill="none"  stroke-width="0.5"  /></g><g c_partid="part_pcbtext" c_etype="pinpart" c_origin="4155,3568" c_rotation="0" c_mirror="0" id="gge1732" locked="0" layerid="3" c_shapetype="group" ><path c_fontsize="8" c_fontfamily="" c_text="RD" d="M 4155 3559.93 L 4155 3567.56 M 4155 3559.93 L 4158.27 3559.93 L 4159.36 3560.29 L 4159.73 3560.65 L 4160.09 3561.38 L 4160.09 3562.11 L 4159.73 3562.84 L 4159.36 3563.2 L 4158.27 3563.56 L 4155 3563.56 M 4157.55 3563.56 L 4160.09 3567.56 M 4162.49 3559.93 L 4162.49 3567.56 M 4162.49 3559.93 L 4165.04 3559.93 L 4166.13 3560.29 L 4166.85 3561.02 L 4167.22 3561.75 L 4167.58 3562.84 L 4167.58 3564.65 L 4167.22 3565.75 L 4166.85 3566.47 L 4166.13 3567.2 L 4165.04 3567.56 L 4162.49 3567.56" fill="none"  stroke-width="0.5"  /></g><g c_partid="part_pcbtext" c_etype="pinpart" c_origin="4160,3618" c_rotation="0" c_mirror="0" id="gge1736" locked="0" layerid="3" c_shapetype="group" ><path c_fontsize="8" c_fontfamily="" c_text="C" d="M 4165.45 3611.75 L 4165.09 3611.02 L 4164.36 3610.29 L 4163.64 3609.93 L 4162.18 3609.93 L 4161.45 3610.29 L 4160.73 3611.02 L 4160.36 3611.75 L 4160 3612.84 L 4160 3614.65 L 4160.36 3615.75 L 4160.73 3616.47 L 4161.45 3617.2 L 4162.18 3617.56 L 4163.64 3617.56 L 4164.36 3617.2 L 4165.09 3616.47 L 4165.45 3615.75" fill="none"  stroke-width="0.5"  /></g><g c_partid="part_pcbtext" c_etype="pinpart" c_origin="4172.5,3605.5" c_rotation="90" c_mirror="0" id="gge1740" locked="0" layerid="3" c_shapetype="group" ><path c_fontsize="6" c_fontfamily="" c_text="100k" d="M 4167.54 3605.5 L 4167.26 3604.95 L 4166.45 3604.14 L 4172.17 3604.14 M 4166.45 3600.7 L 4166.72 3601.52 L 4167.54 3602.06 L 4168.9 3602.34 L 4169.72 3602.34 L 4171.08 3602.06 L 4171.9 3601.52 L 4172.17 3600.7 L 4172.17 3600.15 L 4171.9 3599.34 L 4171.08 3598.79 L 4169.72 3598.52 L 4168.9 3598.52 L 4167.54 3598.79 L 4166.72 3599.34 L 4166.45 3600.15 L 4166.45 3600.7 M 4166.45 3595.08 L 4166.72 3595.9 L 4167.54 3596.45 L 4168.9 3596.72 L 4169.72 3596.72 L 4171.08 3596.45 L 4171.9 3595.9 L 4172.17 3595.08 L 4172.17 3594.54 L 4171.9 3593.72 L 4171.08 3593.17 L 4169.72 3592.9 L 4168.9 3592.9 L 4167.54 3593.17 L 4166.72 3593.72 L 4166.45 3594.54 L 4166.45 3595.08 M 4166.45 3591.1 L 4172.17 3591.1 M 4168.35 3588.37 L 4171.08 3591.1 M 4169.99 3590.01 L 4172.17 3588.1" fill="none"  stroke-width="0.5"  /></g><g c_partid="part_pcbtext" c_etype="pinpart" c_origin="4095,3618" c_rotation="0" c_mirror="0" id="gge1744" locked="0" layerid="3" c_shapetype="group" ><path c_fontsize="8" c_fontfamily="" c_text="LCD" d="M 4095 3609.93 L 4095 3617.56 M 4095 3617.56 L 4099.36 3617.56 M 4107.22 3611.75 L 4106.85 3611.02 L 4106.13 3610.29 L 4105.4 3609.93 L 4103.95 3609.93 L 4103.22 3610.29 L 4102.49 3611.02 L 4102.13 3611.75 L 4101.76 3612.84 L 4101.76 3614.65 L 4102.13 3615.75 L 4102.49 3616.47 L 4103.22 3617.2 L 4103.95 3617.56 L 4105.4 3617.56 L 4106.13 3617.2 L 4106.85 3616.47 L 4107.22 3615.75 M 4109.62 3609.93 L 4109.62 3617.56 M 4109.62 3609.93 L 4112.16 3609.93 L 4113.25 3610.29 L 4113.98 3611.02 L 4114.35 3611.75 L 4114.71 3612.84 L 4114.71 3614.65 L 4114.35 3615.75 L 4113.98 3616.47 L 4113.25 3617.2 L 4112.16 3617.56 L 4109.62 3617.56" fill="none"  stroke-width="0.5"  /></g><g c_partid="part_pcbtext" c_etype="pinpart" c_origin="4055,3613" c_rotation="0" c_mirror="0" id="gge1748" locked="0" layerid="3" c_shapetype="group" ><path c_fontsize="8" c_fontfamily="" c_text="SE" d="M 4060.09 3606.02 L 4059.36 3605.29 L 4058.27 3604.93 L 4056.82 3604.93 L 4055.73 3605.29 L 4055 3606.02 L 4055 3606.75 L 4055.36 3607.47 L 4055.73 3607.84 L 4056.45 3608.2 L 4058.64 3608.93 L 4059.36 3609.29 L 4059.73 3609.65 L 4060.09 3610.38 L 4060.09 3611.47 L 4059.36 3612.2 L 4058.27 3612.56 L 4056.82 3612.56 L 4055.73 3612.2 L 4055 3611.47 M 4062.49 3604.93 L 4062.49 3612.56 M 4062.49 3604.93 L 4067.22 3604.93 M 4062.49 3608.56 L 4065.4 3608.56 M 4062.49 3612.56 L 4067.22 3612.56" fill="none"  stroke-width="0.5"  /></g><g c_partid="part_pcbtext" c_etype="pinpart" c_origin="4115,3588" c_rotation="0" c_mirror="0" id="gge1752" locked="0" layerid="3" c_shapetype="group" ><path c_fontsize="8" c_fontfamily="" c_text="LE" d="M 4115 3579.93 L 4115 3587.56 M 4115 3587.56 L 4119.36 3587.56 M 4121.76 3579.93 L 4121.76 3587.56 M 4121.76 3579.93 L 4126.49 3579.93 M 4121.76 3583.56 L 4124.67 3583.56 M 4121.76 3587.56 L 4126.49 3587.56" fill="none"  stroke-width="0.5"  /></g><g c_partid="part_pcbtext" c_etype="pinpart" c_origin="4087.5,3578" c_rotation="0" c_mirror="0" id="gge1760" locked="0" layerid="3" c_shapetype="group" ><path c_fontsize="8" c_fontfamily="" c_text="-" d="M 4087.5 3574.29L4094.05 3574.29 " fill="none"  stroke-width="0.5"  /></g><g c_partid="part_pcbtext" c_etype="pinpart" c_origin="4087.5,3398" c_rotation="0" c_mirror="0" id="gge1764" locked="0" layerid="3" c_shapetype="group" ><path c_fontsize="8" c_fontfamily="" c_text="+" d="M 4090.77 3391.02L4090.77 3397.56 M 4087.5 3394.29L4094.05 3394.29 " fill="none"  stroke-width="0.5"  /></g><g c_partid="part_pcbtext" c_etype="pinpart" c_origin="4120,3610.5" c_rotation="0" c_mirror="0" id="gge1768" locked="0" layerid="3" c_shapetype="group" ><path c_fontsize="8" c_fontfamily="" c_text="2k" d="M 4120.36 3604.25 L 4120.36 3603.88 L 4120.73 3603.15 L 4121.09 3602.79 L 4121.82 3602.43 L 4123.27 3602.43 L 4124 3602.79 L 4124.36 3603.15 L 4124.73 3603.88 L 4124.73 3604.61 L 4124.36 3605.34 L 4123.64 3606.43 L 4120 3610.06 L 4125.09 3610.06 M 4127.49 3602.43 L 4127.49 3610.06 M 4131.13 3604.97 L 4127.49 3608.61 M 4128.95 3607.15 L 4131.49 3610.06" fill="none"  stroke-width="0.5"  /></g><g c_partid="part_pcbtext" c_etype="pinpart" c_origin="4087.5,3408" c_rotation="270" c_mirror="0" id="gge1847" locked="0" layerid="3" c_shapetype="group" ><path c_fontsize="8" c_fontfamily="" c_text="eeprommer3 - Minh Le" d="M 4090.85 3408L4090.85 3412.36 L4091.57 3412.36 L4092.3 3412 L4092.66 3411.64 L4093.03 3410.91 L4093.03 3409.82 L4092.66 3409.09 L4091.94 3408.36 L4090.85 3408 L4090.12 3408 L4089.03 3408.36 L4088.3 3409.09 L4087.94 3409.82 L4087.94 3410.91 L4088.3 3411.64 L4089.03 3412.36 M 4090.85 3414.76L4090.85 3419.13 L4091.57 3419.13 L4092.3 3418.76 L4092.66 3418.4 L4093.03 3417.67 L4093.03 3416.58 L4092.66 3415.85 L4091.94 3415.13 L4090.85 3414.76 L4090.12 3414.76 L4089.03 3415.13 L4088.3 3415.85 L4087.94 3416.58 L4087.94 3417.67 L4088.3 3418.4 L4089.03 3419.13 M 4093.03 3421.53L4085.39 3421.53 M 4091.94 3421.53L4092.66 3422.25 L4093.03 3422.98 L4093.03 3424.07 L4092.66 3424.8 L4091.94 3425.53 L4090.85 3425.89 L4090.12 3425.89 L4089.03 3425.53 L4088.3 3424.8 L4087.94 3424.07 L4087.94 3422.98 L4088.3 3422.25 L4089.03 3421.53 M 4093.03 3428.29L4087.94 3428.29 M 4090.85 3428.29L4091.94 3428.65 L4092.66 3429.38 L4093.03 3430.11 L4093.03 3431.2 M 4093.03 3435.42L4092.66 3434.69 L4091.94 3433.96 L4090.85 3433.6 L4090.12 3433.6 L4089.03 3433.96 L4088.3 3434.69 L4087.94 3435.42 L4087.94 3436.51 L4088.3 3437.24 L4089.03 3437.96 L4090.12 3438.33 L4090.85 3438.33 L4091.94 3437.96 L4092.66 3437.24 L4093.03 3436.51 L4093.03 3435.42 M 4093.03 3440.73L4087.94 3440.73 M 4091.57 3440.73L4092.66 3441.82 L4093.03 3442.55 L4093.03 3443.64 L4092.66 3444.36 L4091.57 3444.73 L4087.94 3444.73 M 4091.57 3444.73L4092.66 3445.82 L4093.03 3446.55 L4093.03 3447.64 L4092.66 3448.36 L4091.57 3448.73 L4087.94 3448.73 M 4093.03 3451.13L4087.94 3451.13 M 4091.57 3451.13L4092.66 3452.22 L4093.03 3452.95 L4093.03 3454.04 L4092.66 3454.76 L4091.57 3455.13 L4087.94 3455.13 M 4091.57 3455.13L4092.66 3456.22 L4093.03 3456.95 L4093.03 3458.04 L4092.66 3458.76 L4091.57 3459.13 L4087.94 3459.13 M 4090.85 3461.53L4090.85 3465.89 L4091.57 3465.89 L4092.3 3465.53 L4092.66 3465.16 L4093.03 3464.44 L4093.03 3463.35 L4092.66 3462.62 L4091.94 3461.89 L4090.85 3461.53 L4090.12 3461.53 L4089.03 3461.89 L4088.3 3462.62 L4087.94 3463.35 L4087.94 3464.44 L4088.3 3465.16 L4089.03 3465.89 M 4093.03 3468.29L4087.94 3468.29 M 4090.85 3468.29L4091.94 3468.65 L4092.66 3469.38 L4093.03 3470.11 L4093.03 3471.2 M 4095.57 3474.33L4095.57 3478.33 L4092.66 3476.15 L4092.66 3477.24 L4092.3 3477.96 L4091.94 3478.33 L4090.85 3478.69 L4090.12 3478.69 L4089.03 3478.33 L4088.3 3477.6 L4087.94 3476.51 L4087.94 3475.42 L4088.3 3474.33 L4088.66 3473.96 L4089.39 3473.6 M 4091.21 3486.69L4091.21 3493.24 M 4095.57 3501.24L4087.94 3501.24 M 4095.57 3501.24L4087.94 3504.15 M 4095.57 3507.05L4087.94 3504.15 M 4095.57 3507.05L4087.94 3507.05 M 4095.57 3509.45L4095.21 3509.82 L4095.57 3510.18 L4095.94 3509.82 L4095.57 3509.45 M 4093.03 3509.82L4087.94 3509.82 M 4093.03 3512.58L4087.94 3512.58 M 4091.57 3512.58L4092.66 3513.67 L4093.03 3514.4 L4093.03 3515.49 L4092.66 3516.22 L4091.57 3516.58 L4087.94 3516.58 M 4095.57 3518.98L4087.94 3518.98 M 4091.57 3518.98L4092.66 3520.07 L4093.03 3520.8 L4093.03 3521.89 L4092.66 3522.62 L4091.57 3522.98 L4087.94 3522.98 M 4095.57 3530.98L4087.94 3530.98 M 4087.94 3530.98L4087.94 3535.35 M 4090.85 3537.75L4090.85 3542.11 L4091.57 3542.11 L4092.3 3541.75 L4092.66 3541.38 L4093.03 3540.65 L4093.03 3539.56 L4092.66 3538.84 L4091.94 3538.11 L4090.85 3537.75 L4090.12 3537.75 L4089.03 3538.11 L4088.3 3538.84 L4087.94 3539.56 L4087.94 3540.65 L4088.3 3541.38 L4089.03 3542.11 " fill="none"  stroke-width="0.5"  /></g><g c_partid="part_pcbtext" c_etype="" c_origin="4077.6499,3623.29" c_rotation="0" c_mirror="" id="gge1775" locked="0" layerid="3" c_shapetype="group" display="none"><path c_fontsize="4.5" c_fontfamily="" c_text="0" d="M 4078.8799 3618.75 L 4078.2599 3618.95 L 4077.8499 3619.57 L 4077.6499 3620.59 L 4077.6499 3621.2 L 4077.8499 3622.23 L 4078.2599 3622.84 L 4078.8799 3623.04 L 4079.2899 3623.04 L 4079.8999 3622.84 L 4080.3099 3622.23 L 4080.5099 3621.2 L 4080.5099 3620.59 L 4080.3099 3619.57 L 4079.8999 3618.95 L 4079.2899 3618.75 L 4078.8799 3618.75" fill="none"  stroke-width="0.6" c_note="note_name" /></g><g c_partid="part_pcbtext" c_etype="" c_origin="4080,3600.5" c_rotation="0" c_mirror="0" id="gge1777" locked="0" layerid="3" c_shapetype="group" ><path c_fontsize="6" c_fontfamily="" c_text="R4" d="M 4080 3594.45 L 4080 3600.17 M 4080 3594.45 L 4082.45 3594.45 L 4083.27 3594.72 L 4083.55 3594.99 L 4083.82 3595.54 L 4083.82 3596.08 L 4083.55 3596.63 L 4083.27 3596.9 L 4082.45 3597.17 L 4080 3597.17 M 4081.91 3597.17 L 4083.82 3600.17 M 4088.35 3594.45 L 4085.62 3598.26 L 4089.71 3598.26 M 4088.35 3594.45 L 4088.35 3600.17" fill="none"  stroke-width="0.6" c_note="note_pre" /></g><g c_partid="part_pcbtext" c_etype="" c_origin="4119.8919,3547.01" c_rotation="0" c_mirror="" id="gge1524" locked="0" layerid="3" c_shapetype="group" display="none"><path c_fontsize="4.5" c_fontfamily="" c_text="WR" d="M 4119.8919 3542.47 L 4120.9119 3546.76 M 4121.9419 3542.47 L 4120.9119 3546.76 M 4121.9419 3542.47 L 4122.9619 3546.76 M 4123.9819 3542.47 L 4122.9619 3546.76 M 4125.3319 3542.47 L 4125.3319 3546.76 M 4125.3319 3542.47 L 4127.1719 3542.47 L 4127.7919 3542.67 L 4127.9919 3542.88 L 4128.1919 3543.29 L 4128.1919 3543.7 L 4127.9919 3544.11 L 4127.7919 3544.31 L 4127.1719 3544.51 L 4125.3319 3544.51 M 4126.7619 3544.51 L 4128.1919 3546.76" fill="none"  stroke-width="0.6" c_note="note_name" /></g><g c_partid="part_pcbtext" c_etype="" c_origin="4117.5,3555.5" c_rotation="0" c_mirror="0" id="gge1526" locked="0" layerid="3" c_shapetype="group" ><path c_fontsize="6" c_fontfamily="" c_text="D1" d="M 4117.5 3549.45 L 4117.5 3555.17 M 4117.5 3549.45 L 4119.41 3549.45 L 4120.23 3549.72 L 4120.77 3550.26 L 4121.05 3550.81 L 4121.32 3551.63 L 4121.32 3552.99 L 4121.05 3553.81 L 4120.77 3554.35 L 4120.23 3554.9 L 4119.41 3555.17 L 4117.5 3555.17 M 4123.12 3550.54 L 4123.66 3550.26 L 4124.48 3549.45 L 4124.48 3555.17" fill="none"  stroke-width="0.6" c_note="note_pre" /></g><g c_partid="part_pcbtext" c_etype="" c_origin="4144.8919,3547.01" c_rotation="0" c_mirror="" id="gge1552" locked="0" layerid="3" c_shapetype="group" display="none"><path c_fontsize="4.5" c_fontfamily="" c_text="RD" d="M 4144.8919 3542.47 L 4144.8919 3546.76 M 4144.8919 3542.47 L 4146.7319 3542.47 L 4147.3419 3542.67 L 4147.5519 3542.88 L 4147.7519 3543.29 L 4147.7519 3543.7 L 4147.5519 3544.11 L 4147.3419 3544.31 L 4146.7319 3544.51 L 4144.8919 3544.51 M 4146.3219 3544.51 L 4147.7519 3546.76 M 4149.1019 3542.47 L 4149.1019 3546.76 M 4149.1019 3542.47 L 4150.5419 3542.47 L 4151.1519 3542.67 L 4151.5619 3543.08 L 4151.7619 3543.49 L 4151.9719 3544.11 L 4151.9719 3545.13 L 4151.7619 3545.74 L 4151.5619 3546.15 L 4151.1519 3546.56 L 4150.5419 3546.76 L 4149.1019 3546.76" fill="none"  stroke-width="0.6" c_note="note_name" /></g><g c_partid="part_pcbtext" c_etype="" c_origin="4142.5,3555.5" c_rotation="0" c_mirror="0" id="gge1554" locked="0" layerid="3" c_shapetype="group" ><path c_fontsize="6" c_fontfamily="" c_text="D2" d="M 4142.5 3549.45 L 4142.5 3555.17 M 4142.5 3549.45 L 4144.41 3549.45 L 4145.23 3549.72 L 4145.77 3550.26 L 4146.05 3550.81 L 4146.32 3551.63 L 4146.32 3552.99 L 4146.05 3553.81 L 4145.77 3554.35 L 4145.23 3554.9 L 4144.41 3555.17 L 4142.5 3555.17 M 4148.39 3550.81 L 4148.39 3550.54 L 4148.66 3549.99 L 4148.94 3549.72 L 4149.48 3549.45 L 4150.57 3549.45 L 4151.12 3549.72 L 4151.39 3549.99 L 4151.66 3550.54 L 4151.66 3551.08 L 4151.39 3551.63 L 4150.85 3552.45 L 4148.12 3555.17 L 4151.94 3555.17" fill="none"  stroke-width="0.6" c_note="note_pre" /></g><g c_partid="part_pcbtext" c_etype="" c_origin="4122.5,3582.5" c_rotation="0" c_mirror="" id="gge1580" locked="0" layerid="3" c_shapetype="group" display="none"><path c_fontsize="4.5" c_fontfamily="" c_text="2k" d="M 4122.7 3578.98 L 4122.7 3578.78 L 4122.91 3578.37 L 4123.11 3578.16 L 4123.52 3577.96 L 4124.34 3577.96 L 4124.75 3578.16 L 4124.95 3578.37 L 4125.16 3578.78 L 4125.16 3579.19 L 4124.95 3579.6 L 4124.55 3580.21 L 4122.5 3582.25 L 4125.36 3582.25 M 4126.71 3577.96 L 4126.71 3582.25 M 4128.76 3579.39 L 4126.71 3581.44 M 4127.53 3580.62 L 4128.96 3582.25" fill="none"  stroke-width="0.6" c_note="note_name" /></g><g c_partid="part_pcbtext" c_etype="" c_origin="4105,3598" c_rotation="0" c_mirror="0" id="gge1582" locked="0" layerid="3" c_shapetype="group" ><path c_fontsize="6" c_fontfamily="" c_text="R1" d="M 4105 3591.95 L 4105 3597.67 M 4105 3591.95 L 4107.45 3591.95 L 4108.27 3592.22 L 4108.55 3592.49 L 4108.82 3593.04 L 4108.82 3593.58 L 4108.55 3594.13 L 4108.27 3594.4 L 4107.45 3594.67 L 4105 3594.67 M 4106.91 3594.67 L 4108.82 3597.67 M 4110.62 3593.04 L 4111.16 3592.76 L 4111.98 3591.95 L 4111.98 3597.67" fill="none"  stroke-width="0.6" c_note="note_pre" /></g><g c_partid="part_pcbtext" c_etype="" c_origin="4136.04,3620.79" c_rotation="0" c_mirror="" id="gge1600" locked="0" layerid="3" c_shapetype="group" display="none"><path c_fontsize="4.5" c_fontfamily="" c_text="2k" d="M 4136.24 3617.27 L 4136.24 3617.07 L 4136.45 3616.66 L 4136.65 3616.45 L 4137.06 3616.25 L 4137.88 3616.25 L 4138.29 3616.45 L 4138.49 3616.66 L 4138.7 3617.07 L 4138.7 3617.48 L 4138.49 3617.89 L 4138.09 3618.5 L 4136.04 3620.54 L 4138.9 3620.54 M 4140.25 3616.25 L 4140.25 3620.54 M 4142.3 3617.68 L 4140.25 3619.73 M 4141.07 3618.91 L 4142.5 3620.54" fill="none"  stroke-width="0.6" c_note="note_name" /></g><g c_partid="part_pcbtext" c_etype="" c_origin="4137.5,3613" c_rotation="0" c_mirror="0" id="gge1602" locked="0" layerid="3" c_shapetype="group" ><path c_fontsize="6" c_fontfamily="" c_text="R2" d="M 4137.5 3606.95 L 4137.5 3612.67 M 4137.5 3606.95 L 4139.95 3606.95 L 4140.77 3607.22 L 4141.05 3607.49 L 4141.32 3608.04 L 4141.32 3608.58 L 4141.05 3609.13 L 4140.77 3609.4 L 4139.95 3609.67 L 4137.5 3609.67 M 4139.41 3609.67 L 4141.32 3612.67 M 4143.39 3608.31 L 4143.39 3608.04 L 4143.66 3607.49 L 4143.94 3607.22 L 4144.48 3606.95 L 4145.57 3606.95 L 4146.12 3607.22 L 4146.39 3607.49 L 4146.66 3608.04 L 4146.66 3608.58 L 4146.39 3609.13 L 4145.85 3609.95 L 4143.12 3612.67 L 4146.94 3612.67" fill="none"  stroke-width="0.6" c_note="note_pre" /></g><g c_partid="part_pcbtext" c_etype="" c_origin="4139.49,3570" c_rotation="0" c_mirror="" id="gge1620" locked="0" layerid="3" c_shapetype="group" display="none"><path c_fontsize="4.5" c_fontfamily="" c_text="0" d="M 4140.72 3565.46 L 4140.1 3565.66 L 4139.69 3566.28 L 4139.49 3567.3 L 4139.49 3567.91 L 4139.69 3568.94 L 4140.1 3569.55 L 4140.72 3569.75 L 4141.13 3569.75 L 4141.74 3569.55 L 4142.15 3568.94 L 4142.35 3567.91 L 4142.35 3567.3 L 4142.15 3566.28 L 4141.74 3565.66 L 4141.13 3565.46 L 4140.72 3565.46" fill="none"  stroke-width="0.6" c_note="note_name" /></g><g c_partid="part_pcbtext" c_etype="" c_origin="4140,3595.5" c_rotation="0" c_mirror="0" id="gge1622" locked="0" layerid="3" c_shapetype="group" ><path c_fontsize="6" c_fontfamily="" c_text="R3" d="M 4140 3589.45 L 4140 3595.17 M 4140 3589.45 L 4142.45 3589.45 L 4143.27 3589.72 L 4143.55 3589.99 L 4143.82 3590.54 L 4143.82 3591.08 L 4143.55 3591.63 L 4143.27 3591.9 L 4142.45 3592.17 L 4140 3592.17 M 4141.91 3592.17 L 4143.82 3595.17 M 4146.16 3589.45 L 4149.16 3589.45 L 4147.53 3591.63 L 4148.35 3591.63 L 4148.89 3591.9 L 4149.16 3592.17 L 4149.44 3592.99 L 4149.44 3593.54 L 4149.16 3594.35 L 4148.62 3594.9 L 4147.8 3595.17 L 4146.98 3595.17 L 4146.16 3594.9 L 4145.89 3594.63 L 4145.62 3594.08" fill="none"  stroke-width="0.6" c_note="note_pre" /></g><g c_partid="part_pcbtext" c_etype="" c_origin="4086.792,3505.77" c_rotation="90" c_mirror="0" id="gge49" locked="0" layerid="3" c_shapetype="group" display="none"><path c_fontsize="4.5" c_fontfamily="" c_text="MCP23017-SOIC" d="M 4082.2515 3505.77 L 4086.5415 3505.77 M 4082.2515 3505.77 L 4086.5415 3504.13 M 4082.2515 3502.5 L 4086.5415 3504.13 M 4082.2515 3502.5 L 4086.5415 3502.5 M 4083.2715 3498.08 L 4082.8615 3498.28 L 4082.4515 3498.69 L 4082.2515 3499.1 L 4082.2515 3499.92 L 4082.4515 3500.33 L 4082.8615 3500.74 L 4083.2715 3500.94 L 4083.8915 3501.15 L 4084.9115 3501.15 L 4085.5215 3500.94 L 4085.9315 3500.74 L 4086.3415 3500.33 L 4086.5415 3499.92 L 4086.5415 3499.1 L 4086.3415 3498.69 L 4085.9315 3498.28 L 4085.5215 3498.08 M 4082.2515 3496.73 L 4086.5415 3496.73 M 4082.2515 3496.73 L 4082.2515 3494.89 L 4082.4515 3494.27 L 4082.6615 3494.07 L 4083.0715 3493.87 L 4083.6815 3493.87 L 4084.0915 3494.07 L 4084.2915 3494.27 L 4084.5015 3494.89 L 4084.5015 3496.73 M 4083.2715 3492.31 L 4083.0715 3492.31 L 4082.6615 3492.11 L 4082.4515 3491.9 L 4082.2515 3491.49 L 4082.2515 3490.67 L 4082.4515 3490.27 L 4082.6615 3490.06 L 4083.0715 3489.86 L 4083.4815 3489.86 L 4083.8915 3490.06 L 4084.5015 3490.47 L 4086.5415 3492.52 L 4086.5415 3489.65 M 4082.2515 3487.89 L 4082.2515 3485.64 L 4083.8915 3486.87 L 4083.8915 3486.26 L 4084.0915 3485.85 L 4084.2915 3485.64 L 4084.9115 3485.44 L 4085.3215 3485.44 L 4085.9315 3485.64 L 4086.3415 3486.05 L 4086.5415 3486.67 L 4086.5415 3487.28 L 4086.3415 3487.89 L 4086.1415 3488.1 L 4085.7315 3488.3 M 4082.2515 3482.86 L 4082.4515 3483.47 L 4083.0715 3483.88 L 4084.0915 3484.09 L 4084.7015 3484.09 L 4085.7315 3483.88 L 4086.3415 3483.47 L 4086.5415 3482.86 L 4086.5415 3482.45 L 4086.3415 3481.84 L 4085.7315 3481.43 L 4084.7015 3481.22 L 4084.0915 3481.22 L 4083.0715 3481.43 L 4082.4515 3481.84 L 4082.2515 3482.45 L 4082.2515 3482.86 M 4083.0715 3479.87 L 4082.8615 3479.47 L 4082.2515 3478.85 L 4086.5415 3478.85 M 4082.2515 3474.64 L 4086.5415 3476.68 M 4082.2515 3477.5 L 4082.2515 3474.64 M 4084.7015 3473.29 L 4084.7015 3469.61 M 4082.8615 3465.39 L 4082.4515 3465.8 L 4082.2515 3466.42 L 4082.2515 3467.23 L 4082.4515 3467.85 L 4082.8615 3468.26 L 4083.2715 3468.26 L 4083.6815 3468.05 L 4083.8915 3467.85 L 4084.0915 3467.44 L 4084.5015 3466.21 L 4084.7015 3465.8 L 4084.9115 3465.6 L 4085.3215 3465.39 L 4085.9315 3465.39 L 4086.3415 3465.8 L 4086.5415 3466.42 L 4086.5415 3467.23 L 4086.3415 3467.85 L 4085.9315 3468.26 M 4082.2515 3462.82 L 4082.4515 3463.22 L 4082.8615 3463.63 L 4083.2715 3463.84 L 4083.8915 3464.04 L 4084.9115 3464.04 L 4085.5215 3463.84 L 4085.9315 3463.63 L 4086.3415 3463.22 L 4086.5415 3462.82 L 4086.5415 3462 L 4086.3415 3461.59 L 4085.9315 3461.18 L 4085.5215 3460.97 L 4084.9115 3460.77 L 4083.8915 3460.77 L 4083.2715 3460.97 L 4082.8615 3461.18 L 4082.4515 3461.59 L 4082.2515 3462 L 4082.2515 3462.82 M 4082.2515 3459.42 L 4086.5415 3459.42 M 4083.2715 3455 L 4082.8615 3455.21 L 4082.4515 3455.62 L 4082.2515 3456.02 L 4082.2515 3456.84 L 4082.4515 3457.25 L 4082.8615 3457.66 L 4083.2715 3457.87 L 4083.8915 3458.07 L 4084.9115 3458.07 L 4085.5215 3457.87 L 4085.9315 3457.66 L 4086.3415 3457.25 L 4086.5415 3456.84 L 4086.5415 3456.02 L 4086.3415 3455.62 L 4085.9315 3455.21 L 4085.5215 3455" fill="none"  stroke-width="0.6" c_note="note_name" /></g><g c_partid="part_pcbtext" c_etype="" c_origin="4047.5,3428" c_rotation="0" c_mirror="0" id="gge51" locked="0" layerid="3" c_shapetype="group" ><path c_fontsize="6" c_fontfamily="" c_text="U1" d="M 4047.5 3421.95 L 4047.5 3426.04 L 4047.77 3426.85 L 4048.32 3427.4 L 4049.14 3427.67 L 4049.68 3427.67 L 4050.5 3427.4 L 4051.05 3426.85 L 4051.32 3426.04 L 4051.32 3421.95 M 4053.12 3423.04 L 4053.66 3422.76 L 4054.48 3421.95 L 4054.48 3427.67" fill="none"  stroke-width="0.6" c_note="note_pre" /></g><g c_partid="part_pcbtext" c_etype="" c_origin="4086.792,3585.77" c_rotation="90" c_mirror="0" id="gge259" locked="0" layerid="3" c_shapetype="group" display="none"><path c_fontsize="4.5" c_fontfamily="" c_text="MCP23017-SOIC" d="M 4082.2515 3585.77 L 4086.5415 3585.77 M 4082.2515 3585.77 L 4086.5415 3584.13 M 4082.2515 3582.5 L 4086.5415 3584.13 M 4082.2515 3582.5 L 4086.5415 3582.5 M 4083.2715 3578.08 L 4082.8615 3578.28 L 4082.4515 3578.69 L 4082.2515 3579.1 L 4082.2515 3579.92 L 4082.4515 3580.33 L 4082.8615 3580.74 L 4083.2715 3580.94 L 4083.8915 3581.15 L 4084.9115 3581.15 L 4085.5215 3580.94 L 4085.9315 3580.74 L 4086.3415 3580.33 L 4086.5415 3579.92 L 4086.5415 3579.1 L 4086.3415 3578.69 L 4085.9315 3578.28 L 4085.5215 3578.08 M 4082.2515 3576.73 L 4086.5415 3576.73 M 4082.2515 3576.73 L 4082.2515 3574.89 L 4082.4515 3574.27 L 4082.6615 3574.07 L 4083.0715 3573.87 L 4083.6815 3573.87 L 4084.0915 3574.07 L 4084.2915 3574.27 L 4084.5015 3574.89 L 4084.5015 3576.73 M 4083.2715 3572.31 L 4083.0715 3572.31 L 4082.6615 3572.11 L 4082.4515 3571.9 L 4082.2515 3571.49 L 4082.2515 3570.67 L 4082.4515 3570.27 L 4082.6615 3570.06 L 4083.0715 3569.86 L 4083.4815 3569.86 L 4083.8915 3570.06 L 4084.5015 3570.47 L 4086.5415 3572.52 L 4086.5415 3569.65 M 4082.2515 3567.89 L 4082.2515 3565.64 L 4083.8915 3566.87 L 4083.8915 3566.26 L 4084.0915 3565.85 L 4084.2915 3565.64 L 4084.9115 3565.44 L 4085.3215 3565.44 L 4085.9315 3565.64 L 4086.3415 3566.05 L 4086.5415 3566.67 L 4086.5415 3567.28 L 4086.3415 3567.89 L 4086.1415 3568.1 L 4085.7315 3568.3 M 4082.2515 3562.86 L 4082.4515 3563.47 L 4083.0715 3563.88 L 4084.0915 3564.09 L 4084.7015 3564.09 L 4085.7315 3563.88 L 4086.3415 3563.47 L 4086.5415 3562.86 L 4086.5415 3562.45 L 4086.3415 3561.84 L 4085.7315 3561.43 L 4084.7015 3561.22 L 4084.0915 3561.22 L 4083.0715 3561.43 L 4082.4515 3561.84 L 4082.2515 3562.45 L 4082.2515 3562.86 M 4083.0715 3559.87 L 4082.8615 3559.47 L 4082.2515 3558.85 L 4086.5415 3558.85 M 4082.2515 3554.64 L 4086.5415 3556.68 M 4082.2515 3557.5 L 4082.2515 3554.64 M 4084.7015 3553.29 L 4084.7015 3549.61 M 4082.8615 3545.39 L 4082.4515 3545.8 L 4082.2515 3546.42 L 4082.2515 3547.23 L 4082.4515 3547.85 L 4082.8615 3548.26 L 4083.2715 3548.26 L 4083.6815 3548.05 L 4083.8915 3547.85 L 4084.0915 3547.44 L 4084.5015 3546.21 L 4084.7015 3545.8 L 4084.9115 3545.6 L 4085.3215 3545.39 L 4085.9315 3545.39 L 4086.3415 3545.8 L 4086.5415 3546.42 L 4086.5415 3547.23 L 4086.3415 3547.85 L 4085.9315 3548.26 M 4082.2515 3542.82 L 4082.4515 3543.22 L 4082.8615 3543.63 L 4083.2715 3543.84 L 4083.8915 3544.04 L 4084.9115 3544.04 L 4085.5215 3543.84 L 4085.9315 3543.63 L 4086.3415 3543.22 L 4086.5415 3542.82 L 4086.5415 3542 L 4086.3415 3541.59 L 4085.9315 3541.18 L 4085.5215 3540.97 L 4084.9115 3540.77 L 4083.8915 3540.77 L 4083.2715 3540.97 L 4082.8615 3541.18 L 4082.4515 3541.59 L 4082.2515 3542 L 4082.2515 3542.82 M 4082.2515 3539.42 L 4086.5415 3539.42 M 4083.2715 3535 L 4082.8615 3535.21 L 4082.4515 3535.62 L 4082.2515 3536.02 L 4082.2515 3536.84 L 4082.4515 3537.25 L 4082.8615 3537.66 L 4083.2715 3537.87 L 4083.8915 3538.07 L 4084.9115 3538.07 L 4085.5215 3537.87 L 4085.9315 3537.66 L 4086.3415 3537.25 L 4086.5415 3536.84 L 4086.5415 3536.02 L 4086.3415 3535.62 L 4085.9315 3535.21 L 4085.5215 3535" fill="none"  stroke-width="0.6" c_note="note_name" /></g><g c_partid="part_pcbtext" c_etype="" c_origin="4047.5,3508" c_rotation="0" c_mirror="0" id="gge261" locked="0" layerid="3" c_shapetype="group" ><path c_fontsize="6" c_fontfamily="" c_text="U2" d="M 4047.5 3501.95 L 4047.5 3506.04 L 4047.77 3506.85 L 4048.32 3507.4 L 4049.14 3507.67 L 4049.68 3507.67 L 4050.5 3507.4 L 4051.05 3506.85 L 4051.32 3506.04 L 4051.32 3501.95 M 4053.39 3503.31 L 4053.39 3503.04 L 4053.66 3502.49 L 4053.94 3502.22 L 4054.48 3501.95 L 4055.57 3501.95 L 4056.12 3502.22 L 4056.39 3502.49 L 4056.66 3503.04 L 4056.66 3503.58 L 4056.39 3504.13 L 4055.85 3504.95 L 4053.12 3507.67 L 4056.94 3507.67" fill="none"  stroke-width="0.6" c_note="note_pre" /></g><g c_partid="part_pcbtext" c_etype="" c_origin="4080,3382.9" c_rotation="0" c_mirror="0" id="gge471" locked="0" layerid="3" c_shapetype="group" display="none"><path c_fontsize="4.5" c_fontfamily="" c_text="M_2.54_1x1" d="M 4080 3378.36 L 4080 3382.65 M 4080 3378.36 L 4081.64 3382.65 M 4083.27 3378.36 L 4081.64 3382.65 M 4083.27 3378.36 L 4083.27 3382.65 M 4084.62 3384.09 L 4088.3 3384.09 M 4089.86 3379.38 L 4089.86 3379.18 L 4090.06 3378.77 L 4090.27 3378.56 L 4090.68 3378.36 L 4091.5 3378.36 L 4091.9 3378.56 L 4092.11 3378.77 L 4092.31 3379.18 L 4092.31 3379.59 L 4092.11 3380 L 4091.7 3380.61 L 4089.65 3382.65 L 4092.52 3382.65 M 4094.07 3381.63 L 4093.87 3381.84 L 4094.07 3382.04 L 4094.28 3381.84 L 4094.07 3381.63 M 4098.08 3378.36 L 4096.04 3378.36 L 4095.83 3380.2 L 4096.04 3380 L 4096.65 3379.79 L 4097.26 3379.79 L 4097.88 3380 L 4098.29 3380.4 L 4098.49 3381.02 L 4098.49 3381.43 L 4098.29 3382.04 L 4097.88 3382.45 L 4097.26 3382.65 L 4096.65 3382.65 L 4096.04 3382.45 L 4095.83 3382.25 L 4095.63 3381.84 M 4101.89 3378.36 L 4099.84 3381.22 L 4102.91 3381.22 M 4101.89 3378.36 L 4101.89 3382.65 M 4104.26 3384.09 L 4107.94 3384.09 M 4109.29 3379.18 L 4109.7 3378.97 L 4110.31 3378.36 L 4110.31 3382.65 M 4111.66 3379.79 L 4113.91 3382.65 M 4113.91 3379.79 L 4111.66 3382.65 M 4115.26 3379.18 L 4115.67 3378.97 L 4116.29 3378.36 L 4116.29 3382.65" fill="none"  stroke-width="0.6" c_note="note_name" /></g><g c_partid="part_pcbtext" c_etype="" c_origin="4076.5,3388.5" c_rotation="0" c_mirror="0" id="gge473" locked="0" layerid="3" c_shapetype="group" ><path c_fontsize="5" c_fontfamily="" c_text="J3" d="M 4078.77 3383.45 L 4078.77 3387.09 L 4078.55 3387.77 L 4078.32 3388 L 4077.86 3388.23 L 4077.41 3388.23 L 4076.95 3388 L 4076.73 3387.77 L 4076.5 3387.09 L 4076.5 3386.64 M 4080.73 3383.45 L 4083.23 3383.45 L 4081.86 3385.27 L 4082.55 3385.27 L 4083 3385.5 L 4083.23 3385.73 L 4083.45 3386.41 L 4083.45 3386.86 L 4083.23 3387.55 L 4082.77 3388 L 4082.09 3388.23 L 4081.41 3388.23 L 4080.73 3388 L 4080.5 3387.77 L 4080.27 3387.32" fill="none"  stroke-width="0.6" c_note="note_pre" /></g><g c_partid="part_pcbtext" c_etype="" c_origin="4080,3562.9" c_rotation="0" c_mirror="0" id="gge489" locked="0" layerid="3" c_shapetype="group" display="none"><path c_fontsize="4.5" c_fontfamily="" c_text="M_2.54_1x1" d="M 4080 3558.36 L 4080 3562.65 M 4080 3558.36 L 4081.64 3562.65 M 4083.27 3558.36 L 4081.64 3562.65 M 4083.27 3558.36 L 4083.27 3562.65 M 4084.62 3564.09 L 4088.3 3564.09 M 4089.86 3559.38 L 4089.86 3559.18 L 4090.06 3558.77 L 4090.27 3558.56 L 4090.68 3558.36 L 4091.5 3558.36 L 4091.9 3558.56 L 4092.11 3558.77 L 4092.31 3559.18 L 4092.31 3559.59 L 4092.11 3560 L 4091.7 3560.61 L 4089.65 3562.65 L 4092.52 3562.65 M 4094.07 3561.63 L 4093.87 3561.84 L 4094.07 3562.04 L 4094.28 3561.84 L 4094.07 3561.63 M 4098.08 3558.36 L 4096.04 3558.36 L 4095.83 3560.2 L 4096.04 3560 L 4096.65 3559.79 L 4097.26 3559.79 L 4097.88 3560 L 4098.29 3560.4 L 4098.49 3561.02 L 4098.49 3561.43 L 4098.29 3562.04 L 4097.88 3562.45 L 4097.26 3562.65 L 4096.65 3562.65 L 4096.04 3562.45 L 4095.83 3562.25 L 4095.63 3561.84 M 4101.89 3558.36 L 4099.84 3561.22 L 4102.91 3561.22 M 4101.89 3558.36 L 4101.89 3562.65 M 4104.26 3564.09 L 4107.94 3564.09 M 4109.29 3559.18 L 4109.7 3558.97 L 4110.31 3558.36 L 4110.31 3562.65 M 4111.66 3559.79 L 4113.91 3562.65 M 4113.91 3559.79 L 4111.66 3562.65 M 4115.26 3559.18 L 4115.67 3558.97 L 4116.29 3558.36 L 4116.29 3562.65" fill="none"  stroke-width="0.6" c_note="note_name" /></g><g c_partid="part_pcbtext" c_etype="" c_origin="4075.5,3569" c_rotation="0" c_mirror="0" id="gge491" locked="0" layerid="3" c_shapetype="group" ><path c_fontsize="6" c_fontfamily="" c_text="J4" d="M 4078.23 3562.95 L 4078.23 3567.31 L 4077.95 3568.13 L 4077.68 3568.4 L 4077.14 3568.67 L 4076.59 3568.67 L 4076.05 3568.4 L 4075.77 3568.13 L 4075.5 3567.31 L 4075.5 3566.76 M 4082.75 3562.95 L 4080.03 3566.76 L 4084.12 3566.76 M 4082.75 3562.95 L 4082.75 3568.67" fill="none"  stroke-width="0.6" c_note="note_pre" /></g><g c_partid="part_pcbtext" c_etype="" c_origin="4103.961,3612.578" c_rotation="0" c_mirror="0" id="gge507" locked="0" layerid="3" c_shapetype="group" display="none"><path c_fontsize="4.5" c_fontfamily="" c_text="F_2.54_1x16" d="M 4103.9605 3608.038 L 4103.9605 3612.328 M 4103.9605 3608.038 L 4106.6205 3608.038 M 4103.9605 3610.078 L 4105.6005 3610.078 M 4107.9705 3613.768 L 4111.6505 3613.768 M 4113.2105 3609.058 L 4113.2105 3608.858 L 4113.4105 3608.448 L 4113.6105 3608.238 L 4114.0205 3608.038 L 4114.8405 3608.038 L 4115.2505 3608.238 L 4115.4605 3608.448 L 4115.6605 3608.858 L 4115.6605 3609.268 L 4115.4605 3609.678 L 4115.0505 3610.288 L 4113.0005 3612.328 L 4115.8605 3612.328 M 4117.4205 3611.308 L 4117.2105 3611.518 L 4117.4205 3611.718 L 4117.6205 3611.518 L 4117.4205 3611.308 M 4121.4305 3608.038 L 4119.3805 3608.038 L 4119.1805 3609.878 L 4119.3805 3609.678 L 4120.0005 3609.468 L 4120.6105 3609.468 L 4121.2205 3609.678 L 4121.6305 3610.078 L 4121.8405 3610.698 L 4121.8405 3611.108 L 4121.6305 3611.718 L 4121.2205 3612.128 L 4120.6105 3612.328 L 4120.0005 3612.328 L 4119.3805 3612.128 L 4119.1805 3611.928 L 4118.9705 3611.518 M 4125.2305 3608.038 L 4123.1905 3610.898 L 4126.2605 3610.898 M 4125.2305 3608.038 L 4125.2305 3612.328 M 4127.6105 3613.768 L 4131.2905 3613.768 M 4132.6405 3608.858 L 4133.0505 3608.648 L 4133.6605 3608.038 L 4133.6605 3612.328 M 4135.0105 3609.468 L 4137.2605 3612.328 M 4137.2605 3609.468 L 4135.0105 3612.328 M 4138.6105 3608.858 L 4139.0205 3608.648 L 4139.6305 3608.038 L 4139.6305 3612.328 M 4143.4405 3608.648 L 4143.2305 3608.238 L 4142.6205 3608.038 L 4142.2105 3608.038 L 4141.6005 3608.238 L 4141.1905 3608.858 L 4140.9805 3609.878 L 4140.9805 3610.898 L 4141.1905 3611.718 L 4141.6005 3612.128 L 4142.2105 3612.328 L 4142.4105 3612.328 L 4143.0305 3612.128 L 4143.4405 3611.718 L 4143.6405 3611.108 L 4143.6405 3610.898 L 4143.4405 3610.288 L 4143.0305 3609.878 L 4142.4105 3609.678 L 4142.2105 3609.678 L 4141.6005 3609.878 L 4141.1905 3610.288 L 4140.9805 3610.898" fill="none"  stroke-width="0.6" c_note="note_name" /></g><g c_partid="part_pcbtext" c_etype="" c_origin="4027.5,3618" c_rotation="0" c_mirror="0" id="gge509" locked="0" layerid="3" c_shapetype="group" ><path c_fontsize="6" c_fontfamily="" c_text="J5" d="M 4030.23 3611.95 L 4030.23 3616.31 L 4029.95 3617.13 L 4029.68 3617.4 L 4029.14 3617.67 L 4028.59 3617.67 L 4028.05 3617.4 L 4027.77 3617.13 L 4027.5 3616.31 L 4027.5 3615.76 M 4035.3 3611.95 L 4032.57 3611.95 L 4032.3 3614.4 L 4032.57 3614.13 L 4033.39 3613.85 L 4034.21 3613.85 L 4035.03 3614.13 L 4035.57 3614.67 L 4035.85 3615.49 L 4035.85 3616.04 L 4035.57 3616.85 L 4035.03 3617.4 L 4034.21 3617.67 L 4033.39 3617.67 L 4032.57 3617.4 L 4032.3 3617.13 L 4032.03 3616.58" fill="none"  stroke-width="0.6" c_note="note_pre" /></g><g c_partid="part_pcbtext" c_etype="" c_origin="4196.35,3632.01" c_rotation="90" c_mirror="0" id="gge615" locked="0" layerid="3" c_shapetype="group" display="none"><path c_fontsize="4.5" c_fontfamily="" c_text="F_2.54_1x3" d="M 4191.8101 3632.0098 L 4196.1001 3632.0098 M 4191.8101 3632.0098 L 4191.8101 3629.3498 M 4193.8501 3632.0098 L 4193.8501 3630.3698 M 4197.5401 3627.9998 L 4197.5401 3624.3198 M 4192.8301 3622.7598 L 4192.6301 3622.7598 L 4192.2201 3622.5598 L 4192.0101 3622.3598 L 4191.8101 3621.9498 L 4191.8101 3621.1298 L 4192.0101 3620.7198 L 4192.2201 3620.5098 L 4192.6301 3620.3098 L 4193.0401 3620.3098 L 4193.4501 3620.5098 L 4194.0601 3620.9198 L 4196.1001 3622.9698 L 4196.1001 3620.1098 M 4195.0801 3618.5498 L 4195.2901 3618.7598 L 4195.4901 3618.5498 L 4195.2901 3618.3498 L 4195.0801 3618.5498 M 4191.8101 3614.5398 L 4191.8101 3616.5898 L 4193.6501 3616.7898 L 4193.4501 3616.5898 L 4193.2401 3615.9698 L 4193.2401 3615.3598 L 4193.4501 3614.7498 L 4193.8501 3614.3398 L 4194.4701 3614.1298 L 4194.8801 3614.1298 L 4195.4901 3614.3398 L 4195.9001 3614.7498 L 4196.1001 3615.3598 L 4196.1001 3615.9698 L 4195.9001 3616.5898 L 4195.7001 3616.7898 L 4195.2901 3616.9998 M 4191.8101 3610.7398 L 4194.6701 3612.7798 L 4194.6701 3609.7098 M 4191.8101 3610.7398 L 4196.1001 3610.7398 M 4197.5401 3608.3598 L 4197.5401 3604.6798 M 4192.6301 3603.3298 L 4192.4201 3602.9198 L 4191.8101 3602.3098 L 4196.1001 3602.3098 M 4193.2401 3600.9598 L 4196.1001 3598.7098 M 4193.2401 3598.7098 L 4196.1001 3600.9598 M 4191.8101 3596.9498 L 4191.8101 3594.6998 L 4193.4501 3595.9298 L 4193.4501 3595.3098 L 4193.6501 3594.9098 L 4193.8501 3594.6998 L 4194.4701 3594.4998 L 4194.8801 3594.4998 L 4195.4901 3594.6998 L 4195.9001 3595.1098 L 4196.1001 3595.7198 L 4196.1001 3596.3398 L 4195.9001 3596.9498 L 4195.7001 3597.1598 L 4195.2901 3597.3598" fill="none"  stroke-width="0.6" c_note="note_name" /></g><g c_partid="part_pcbtext" c_etype="" c_origin="4175,3578" c_rotation="0" c_mirror="0" id="gge617" locked="0" layerid="3" c_shapetype="group" ><path c_fontsize="6" c_fontfamily="" c_text="J6" d="M 4177.73 3571.95 L 4177.73 3576.31 L 4177.45 3577.13 L 4177.18 3577.4 L 4176.64 3577.67 L 4176.09 3577.67 L 4175.55 3577.4 L 4175.27 3577.13 L 4175 3576.31 L 4175 3575.76 M 4182.8 3572.76 L 4182.53 3572.22 L 4181.71 3571.95 L 4181.16 3571.95 L 4180.35 3572.22 L 4179.8 3573.04 L 4179.53 3574.4 L 4179.53 3575.76 L 4179.8 3576.85 L 4180.35 3577.4 L 4181.16 3577.67 L 4181.44 3577.67 L 4182.25 3577.4 L 4182.8 3576.85 L 4183.07 3576.04 L 4183.07 3575.76 L 4182.8 3574.95 L 4182.25 3574.4 L 4181.44 3574.13 L 4181.16 3574.13 L 4180.35 3574.4 L 4179.8 3574.95 L 4179.53 3575.76" fill="none"  stroke-width="0.6" c_note="note_pre" /></g><g c_partid="part_pcbtext" c_etype="" c_origin="4187.49,3488.93" c_rotation="90" c_mirror="0" id="gge647" locked="0" layerid="3" c_shapetype="group" display="none"><path c_fontsize="4.5" c_fontfamily="" c_text="28C256" d="M 4183.97 3488.7302 L 4183.77 3488.7302 L 4183.36 3488.5202 L 4183.15 3488.3202 L 4182.95 3487.9102 L 4182.95 3487.0902 L 4183.15 3486.6802 L 4183.36 3486.4802 L 4183.77 3486.2702 L 4184.18 3486.2702 L 4184.59 3486.4802 L 4185.2 3486.8802 L 4187.24 3488.9302 L 4187.24 3486.0702 M 4182.95 3483.6902 L 4183.15 3484.3102 L 4183.56 3484.5102 L 4183.97 3484.5102 L 4184.38 3484.3102 L 4184.59 3483.9002 L 4184.79 3483.0802 L 4184.99 3482.4702 L 4185.4 3482.0602 L 4185.81 3481.8502 L 4186.43 3481.8502 L 4186.84 3482.0602 L 4187.04 3482.2602 L 4187.24 3482.8802 L 4187.24 3483.6902 L 4187.04 3484.3102 L 4186.84 3484.5102 L 4186.43 3484.7202 L 4185.81 3484.7202 L 4185.4 3484.5102 L 4184.99 3484.1002 L 4184.79 3483.4902 L 4184.59 3482.6702 L 4184.38 3482.2602 L 4183.97 3482.0602 L 4183.56 3482.0602 L 4183.15 3482.2602 L 4182.95 3482.8802 L 4182.95 3483.6902 M 4183.97 3477.4302 L 4183.56 3477.6402 L 4183.15 3478.0502 L 4182.95 3478.4602 L 4182.95 3479.2802 L 4183.15 3479.6802 L 4183.56 3480.0902 L 4183.97 3480.3002 L 4184.59 3480.5002 L 4185.61 3480.5002 L 4186.22 3480.3002 L 4186.63 3480.0902 L 4187.04 3479.6802 L 4187.24 3479.2802 L 4187.24 3478.4602 L 4187.04 3478.0502 L 4186.63 3477.6402 L 4186.22 3477.4302 M 4183.97 3475.8802 L 4183.77 3475.8802 L 4183.36 3475.6802 L 4183.15 3475.4702 L 4182.95 3475.0602 L 4182.95 3474.2402 L 4183.15 3473.8302 L 4183.36 3473.6302 L 4183.77 3473.4302 L 4184.18 3473.4302 L 4184.59 3473.6302 L 4185.2 3474.0402 L 4187.24 3476.0802 L 4187.24 3473.2202 M 4182.95 3469.4202 L 4182.95 3471.4602 L 4184.79 3471.6702 L 4184.59 3471.4602 L 4184.38 3470.8502 L 4184.38 3470.2302 L 4184.59 3469.6202 L 4184.99 3469.2102 L 4185.61 3469.0102 L 4186.02 3469.0102 L 4186.63 3469.2102 L 4187.04 3469.6202 L 4187.24 3470.2302 L 4187.24 3470.8502 L 4187.04 3471.4602 L 4186.84 3471.6702 L 4186.43 3471.8702 M 4183.56 3465.2002 L 4183.15 3465.4102 L 4182.95 3466.0202 L 4182.95 3466.4302 L 4183.15 3467.0402 L 4183.77 3467.4502 L 4184.79 3467.6602 L 4185.81 3467.6602 L 4186.63 3467.4502 L 4187.04 3467.0402 L 4187.24 3466.4302 L 4187.24 3466.2302 L 4187.04 3465.6102 L 4186.63 3465.2002 L 4186.02 3465.0002 L 4185.81 3465.0002 L 4185.2 3465.2002 L 4184.79 3465.6102 L 4184.59 3466.2302 L 4184.59 3466.4302 L 4184.79 3467.0402 L 4185.2 3467.4502 L 4185.81 3467.6602" fill="none"  stroke-width="0.6" c_note="note_name" /></g><g c_partid="part_pcbtext" c_etype="" c_origin="4152.5,3403" c_rotation="0" c_mirror="0" id="gge649" locked="0" layerid="3" c_shapetype="group" ><path c_fontsize="6" c_fontfamily="" c_text="U3" d="M 4152.5 3396.95 L 4152.5 3401.04 L 4152.77 3401.85 L 4153.32 3402.4 L 4154.14 3402.67 L 4154.68 3402.67 L 4155.5 3402.4 L 4156.05 3401.85 L 4156.32 3401.04 L 4156.32 3396.95 M 4158.66 3396.95 L 4161.66 3396.95 L 4160.03 3399.13 L 4160.85 3399.13 L 4161.39 3399.4 L 4161.66 3399.67 L 4161.94 3400.49 L 4161.94 3401.04 L 4161.66 3401.85 L 4161.12 3402.4 L 4160.3 3402.67 L 4159.48 3402.67 L 4158.66 3402.4 L 4158.39 3402.13 L 4158.12 3401.58" fill="none"  stroke-width="0.6" c_note="note_pre" /></g><g c_partid="part_pcbtext" c_etype="" c_origin="4027.5,3396" c_rotation="90" c_mirror="0" id="gge3" locked="0" layerid="3" c_shapetype="group" display="none"><path c_fontsize="4.5" c_fontfamily="" c_text="M_2.54_1x2" d="M 4022.96 3396L4027.25 3396 M 4022.96 3396L4027.25 3394.36 M 4022.96 3392.73L4027.25 3394.36 M 4022.96 3392.73L4027.25 3392.73 M 4028.69 3391.38L4028.69 3387.7 M 4023.98 3386.14L4023.78 3386.14 L4023.37 3385.94 L4023.16 3385.73 L4022.96 3385.32 L4022.96 3384.5 L4023.16 3384.1 L4023.37 3383.89 L4023.78 3383.69 L4024.19 3383.69 L4024.6 3383.89 L4025.21 3384.3 L4027.25 3386.35 L4027.25 3383.48 M 4026.23 3381.93L4026.44 3382.13 L4026.64 3381.93 L4026.44 3381.72 L4026.23 3381.93 M 4022.96 3377.92L4022.96 3379.96 L4024.8 3380.17 L4024.6 3379.96 L4024.39 3379.35 L4024.39 3378.74 L4024.6 3378.12 L4025 3377.71 L4025.62 3377.51 L4026.03 3377.51 L4026.64 3377.71 L4027.05 3378.12 L4027.25 3378.74 L4027.25 3379.35 L4027.05 3379.96 L4026.85 3380.17 L4026.44 3380.37 M 4022.96 3374.11L4025.82 3376.16 L4025.82 3373.09 M 4022.96 3374.11L4027.25 3374.11 M 4028.69 3371.74L4028.69 3368.06 M 4023.78 3366.71L4023.57 3366.3 L4022.96 3365.69 L4027.25 3365.69 M 4024.39 3364.34L4027.25 3362.09 M 4024.39 3362.09L4027.25 3364.34 M 4023.98 3360.53L4023.78 3360.53 L4023.37 3360.33 L4023.16 3360.12 L4022.96 3359.71 L4022.96 3358.9 L4023.16 3358.49 L4023.37 3358.28 L4023.78 3358.08 L4024.19 3358.08 L4024.6 3358.28 L4025.21 3358.69 L4027.25 3360.74 L4027.25 3357.87 " fill="none"  stroke-width="0.6" c_note="note_name" /></g><g c_partid="part_pcbtext" c_etype="" c_origin="4036.5,3389" c_rotation="0" c_mirror="0" id="gge5" locked="0" layerid="3" c_shapetype="group" ><path c_fontsize="5" c_fontfamily="" c_text="J1" d="M 4038.77 3383.95L4038.77 3387.59 L4038.55 3388.27 L4038.32 3388.5 L4037.86 3388.73 L4037.41 3388.73 L4036.95 3388.5 L4036.73 3388.27 L4036.5 3387.59 L4036.5 3387.14 M 4040.27 3384.86L4040.73 3384.64 L4041.41 3383.95 L4041.41 3388.73 " fill="none"  stroke-width="0.6" c_note="note_pre" /></g><g c_partid="part_pcbtext" c_etype="" c_origin="4055,3582.5" c_rotation="0" c_mirror="0" id="gge21" locked="0" layerid="3" c_shapetype="group" display="none"><path c_fontsize="4.5" c_fontfamily="" c_text="M_2.54_1x2" d="M 4055 3577.96L4055 3582.25 M 4055 3577.96L4056.64 3582.25 M 4058.27 3577.96L4056.64 3582.25 M 4058.27 3577.96L4058.27 3582.25 M 4059.62 3583.69L4063.3 3583.69 M 4064.86 3578.98L4064.86 3578.78 L4065.06 3578.37 L4065.27 3578.16 L4065.68 3577.96 L4066.5 3577.96 L4066.9 3578.16 L4067.11 3578.37 L4067.31 3578.78 L4067.31 3579.19 L4067.11 3579.6 L4066.7 3580.21 L4064.65 3582.25 L4067.52 3582.25 M 4069.07 3581.23L4068.87 3581.44 L4069.07 3581.64 L4069.28 3581.44 L4069.07 3581.23 M 4073.08 3577.96L4071.04 3577.96 L4070.83 3579.8 L4071.04 3579.6 L4071.65 3579.39 L4072.26 3579.39 L4072.88 3579.6 L4073.29 3580 L4073.49 3580.62 L4073.49 3581.03 L4073.29 3581.64 L4072.88 3582.05 L4072.26 3582.25 L4071.65 3582.25 L4071.04 3582.05 L4070.83 3581.85 L4070.63 3581.44 M 4076.89 3577.96L4074.84 3580.82 L4077.91 3580.82 M 4076.89 3577.96L4076.89 3582.25 M 4079.26 3583.69L4082.94 3583.69 M 4084.29 3578.78L4084.7 3578.57 L4085.31 3577.96 L4085.31 3582.25 M 4086.66 3579.39L4088.91 3582.25 M 4088.91 3579.39L4086.66 3582.25 M 4090.47 3578.98L4090.47 3578.78 L4090.67 3578.37 L4090.88 3578.16 L4091.29 3577.96 L4092.1 3577.96 L4092.51 3578.16 L4092.72 3578.37 L4092.92 3578.78 L4092.92 3579.19 L4092.72 3579.6 L4092.31 3580.21 L4090.26 3582.25 L4093.13 3582.25 " fill="none"  stroke-width="0.6" c_note="note_name" /></g><g c_partid="part_pcbtext" c_etype="" c_origin="4038.5,3589" c_rotation="0" c_mirror="0" id="gge23" locked="0" layerid="3" c_shapetype="group" ><path c_fontsize="6" c_fontfamily="" c_text="J2" d="M 4041.23 3582.95L4041.23 3587.31 L4040.95 3588.13 L4040.68 3588.4 L4040.14 3588.67 L4039.59 3588.67 L4039.05 3588.4 L4038.77 3588.13 L4038.5 3587.31 L4038.5 3586.76 M 4043.3 3584.31L4043.3 3584.04 L4043.57 3583.49 L4043.85 3583.22 L4044.39 3582.95 L4045.48 3582.95 L4046.03 3583.22 L4046.3 3583.49 L4046.57 3584.04 L4046.57 3584.58 L4046.3 3585.13 L4045.75 3585.95 L4043.03 3588.67 L4046.85 3588.67 " fill="none"  stroke-width="0.6" c_note="note_pre" /></g><path d="M 4126.1811 3559.063 A 7.4283 7.4283 0 0 0 4113.1606 3559.837" locked="0"  fill="none" stroke-width="1" c_helper_type="arc2" net="" layerid="3" id="gge1536" /><path d="M 4113.189 3566.1496 A 7.397 7.397 0 0 0 4126.2576 3566.7504" locked="0"  fill="none" stroke-width="1" c_helper_type="arc2" net="" layerid="3" id="gge1537" /><path d="M 4151.1811 3559.063 A 7.4283 7.4283 0 0 0 4138.1606 3559.837" locked="0"  fill="none" stroke-width="1" c_helper_type="arc2" net="" layerid="3" id="gge1564" /><path d="M 4138.189 3566.1496 A 7.397 7.397 0 0 0 4151.2576 3566.7504" locked="0"  fill="none" stroke-width="1" c_helper_type="arc2" net="" layerid="3" id="gge1565" /><path d="M 4041.3115 3423.81 A 1.1811 1.1811 0 1 0 4041.3115 3423.83" locked="0"  fill="none" stroke-width="2.3622" c_helper_type="arc2" net="" layerid="3" id="gge112" /><path d="M 4028.9115 3419.67 A 0.5906 0.5906 0 1 0 4028.9115 3419.68" locked="0"  fill="none" stroke-width="1.1811" c_helper_type="arc2" net="" layerid="3" id="gge113" /><path d="M 4041.3115 3503.81 A 1.1811 1.1811 0 1 0 4041.3115 3503.83" locked="0"  fill="none" stroke-width="2.3622" c_helper_type="arc2" net="" layerid="3" id="gge322" /><path d="M 4028.9115 3499.67 A 0.5906 0.5906 0 1 0 4028.9115 3499.68" locked="0"  fill="none" stroke-width="1.1811" c_helper_type="arc2" net="" layerid="3" id="gge323" /><path d="M 4147.9749 3392.6653 A 7.874 7.874 0 0 1 4132.2269 3392.6653" locked="0"  fill="none" stroke-width="1" c_helper_type="arc2" net="" layerid="3" id="gge684" /><path d="M 4108.2766 3392.2721 A 1.1811 1.1811 0 1 0 4108.2965 3392.2721" locked="0"  fill="none" stroke-width="2.3622" c_helper_type="arc2" net="" layerid="3" id="gge685" /><circle cx="4118.447" cy="3398.177" r="2.5" stroke-width="1" fill="none" layerid="3" id="gge686" locked="0"  /><polyline points="4020 3375.5 4189 3375.5 4190 3375.5 4190 3635.5 4020 3635.5 4020 3375.5" stroke-width="1"  stroke-linecap="round" fill="none" layerid="10" net="" id="gge468" locked="0" /></svg>