<svg xmlns="http://www.w3.org/2000/svg" xmlns:xlink="http://www.w3.org/1999/xlink" width="48.26mm" height="71.12mm" viewBox="4010 3365.5 190 280"><title></title><style type="text/css">
*[layerid="1"] {stroke:#000000;fill:#000000;}
*[layerid="2"] {stroke:#000000;fill:#000000;}
*[layerid="3"] {stroke:#000000;fill:#000000;}
*[layerid="4"] {stroke:#000000;fill:#000000;}
*[layerid="5"] {stroke:#000000;fill:#000000;}
*[layerid="6"] {stroke:#000000;fill:#000000;}
*[layerid="7"] {stroke:#000000;fill:#000000;}
*[layerid="8"] {stroke:#000000;fill:#000000;}
*[layerid="9"] {stroke:#000000;fill:#000000;}
*[layerid="10"] {stroke:#000000;fill:#000000;}
*[layerid="11"] {stroke:#000000;fill:#000000;}
*[layerid="12"] {stroke:#000000;fill:#000000;}
*[layerid="13"] {stroke:#000000;fill:#000000;}
*[layerid="14"] {stroke:#000000;fill:#000000;}
*[layerid="15"] {stroke:#000000;fill:#000000;}
*[layerid="19"] {stroke:#000000;fill:#000000;}
*[layerid="21"] {stroke:#000000;fill:#000000;}
*[layerid="22"] {stroke:#000000;fill:#000000;}
*[layerid="23"] {stroke:#000000;fill:#000000;}
*[layerid="24"] {stroke:#000000;fill:#000000;}
*[layerid="25"] {stroke:#000000;fill:#000000;}
*[layerid="26"] {stroke:#000000;fill:#000000;}
*[layerid="27"] {stroke:#000000;fill:#000000;}
*[layerid="28"] {stroke:#000000;fill:#000000;}
*[layerid="29"] {stroke:#000000;fill:#000000;}
*[layerid="30"] {stroke:#000000;fill:#000000;}
*[layerid="31"] {stroke:#000000;fill:#000000;}
*[layerid="32"] {stroke:#000000;fill:#000000;}
*[layerid="33"] {stroke:#000000;fill:#000000;}
*[layerid="34"] {stroke:#000000;fill:#000000;}
*[layerid="35"] {stroke:#000000;fill:#000000;}
*[layerid="36"] {stroke:#000000;fill:#000000;}
*[layerid="37"] {stroke:#000000;fill:#000000;}
*[layerid="38"] {stroke:#000000;fill:#000000;}
*[layerid="39"] {stroke:#000000;fill:#000000;}
*[layerid="40"] {stroke:#000000;fill:#000000;}
*[layerid="41"] {stroke:#000000;fill:#000000;}
*[layerid="42"] {stroke:#000000;fill:#000000;}
*[layerid="43"] {stroke:#000000;fill:#000000;}
*[layerid="44"] {stroke:#000000;fill:#000000;}
*[layerid="45"] {stroke:#000000;fill:#000000;}
*[layerid="46"] {stroke:#000000;fill:#000000;}
*[layerid="47"] {stroke:#000000;fill:#000000;}
*[layerid="48"] {stroke:#000000;fill:#000000;}
*[layerid="49"] {stroke:#000000;fill:#000000;}
*[layerid="50"] {stroke:#000000;fill:#000000;}
*[layerid="51"] {stroke:#000000;fill:#000000;}
*[layerid="52"] {stroke:#000000;fill:#000000;}
*[layerid="99"] {stroke:#000000;fill:#000000;}
*[layerid="100"] {stroke:#000000;fill:#000000;}
*[layerid="101"] {stroke:#000000;fill:#000000;}
*[layerid="Hole"] {stroke:#000000;fill:#000000;}
*[layerid="DRCError"] {stroke:#000000;fill:#000000;}
*[fill="none"] {fill: none;}
*[stroke="none"] {stroke: none;}
path, polyline, polygon, line {stroke-linecap:round;}
g[c_partid="part_pad"][layerid="1"] ellipse:not([c_etype="pad_outer"]) {fill:#000000;}
g[c_partid="part_pad"][layerid="1"] polygon:not([c_etype="pad_outer"]) {fill:#000000;}
g[c_partid="part_pad"][layerid="1"] polyline:not([c_etype="pad_outer"]) {stroke:#000000;}
g[c_partid="part_pad"][layerid="2"] ellipse:not([c_etype="pad_outer"]) {fill:#000000;}
g[c_partid="part_pad"][layerid="2"] polygon:not([c_etype="pad_outer"]) {fill:#000000;}
g[c_partid="part_pad"][layerid="2"] polyline:not([c_etype="pad_outer"]) {stroke:#000000;}
g[c_partid="part_pad"][layerid="11"] ellipse:not([c_etype="pad_outer"]) {fill:#000000;}
g[c_partid="part_pad"][layerid="11"] polygon:not([c_etype="pad_outer"]) {fill:#000000;}
g[c_partid="part_pad"][layerid="11"] polyline:not([c_etype="pad_outer"]) {stroke:#000000;}
g[c_partid="part_pad"][layerid="11"] circle {fill:#FFFFFF;}
g[c_partid="part_pad"][layerid="11"] > polyline:nth-of-type(2) {stroke:#FFFFFF;}
g[c_partid="part_pad"][layerid="11"][c_shape="ELLIPSE"]  polyline:nth-last-of-type(1) {stroke:#FFFFFF;}
g[c_partid="part_pad"][layerid="11"][c_shape="RECT"]  polyline:nth-last-of-type(1) {stroke:#FFFFFF;}
g[c_partid="part_pad"][layerid="11"][c_shape="POLYGON"]  polyline:nth-last-of-type(1) {stroke:#FFFFFF;}
g[c_partid="part_via"] > * + circle, #gCurParts g[c_partid="part_via"] > * + circle {fill:#FFFFFF;}
g[c_partid="part_pad"] > polygon[c_etype="pad_outer"], #gCurParts g[c_partid="part_pad"] > polygon[c_etype="pad_outer"] {stroke-linejoin: miter;stroke-miterlimit: 100;}
g[c_partid="part_hole"] > circle {fill: #FFFFFF;}path, polyline, polygon {stroke-linejoin:round;}
rect, circle, ellipse, polyline, line, polygon, path {shape-rendering:crispEdges;}
</style>
<rect x="4010" y="3365.5" width="190" height="280" fill="#FFFFFF" stroke="none"/><polyline points="4089.8407 3609.8307 4070.1557 3609.8307 4070.1557 3601.1693 4089.8407 3601.1693 4089.8407 3609.8307" stroke-width="0.8999986"  stroke-linecap="round" fill="none" layerid="3" net="" id="gge1779" locked="0" /><polyline points="4126.1811 3551.563 4126.1811 3551.7731" stroke-width="1"  stroke-linecap="round" fill="none" layerid="3" net="" id="gge1532" locked="0" /><polyline points="4126.2576 3559.2504 4126.2576 3559.2017" stroke-width="1"  stroke-linecap="round" fill="none" layerid="3" net="" id="gge1533" locked="0" /><polyline points="4117.2441 3549.9882 4117.2441 3551.9882" stroke-width="1"  stroke-linecap="round" fill="none" layerid="3" net="" id="gge1534" locked="0" /><polyline points="4116.2441 3550.9882 4118.2441 3550.9882" stroke-width="1"  stroke-linecap="round" fill="none" layerid="3" net="" id="gge1535" locked="0" /><polyline points="4151.1811 3551.563 4151.1811 3551.7731" stroke-width="1"  stroke-linecap="round" fill="none" layerid="3" net="" id="gge1560" locked="0" /><polyline points="4151.2576 3559.2504 4151.2576 3559.2017" stroke-width="1"  stroke-linecap="round" fill="none" layerid="3" net="" id="gge1561" locked="0" /><polyline points="4142.2441 3549.9882 4142.2441 3551.9882" stroke-width="1"  stroke-linecap="round" fill="none" layerid="3" net="" id="gge1562" locked="0" /><polyline points="4141.2441 3550.9882 4143.2441 3550.9882" stroke-width="1"  stroke-linecap="round" fill="none" layerid="3" net="" id="gge1563" locked="0" /><polyline points="4122.5 3598.5 4122.5 3595.5" stroke-width="1"  stroke-linecap="round" fill="none" layerid="3" net="" id="gge1584" locked="0" /><polyline points="4122.5 3595.5 4122.5 3592.5" stroke-width="1"  stroke-linecap="round" fill="none" layerid="3" net="" id="gge1585" locked="0" /><polyline points="4123.5 3595.5 4122.5 3595.5" stroke-width="1"  stroke-linecap="round" fill="none" layerid="3" net="" id="gge1586" locked="0" /><polyline points="4122.5 3595.5 4121.5 3595.5" stroke-width="1"  stroke-linecap="round" fill="none" layerid="3" net="" id="gge1587" locked="0" /><polyline points="4142.5 3600 4142.5 3603" stroke-width="1"  stroke-linecap="round" fill="none" layerid="3" net="" id="gge1604" locked="0" /><polyline points="4142.5 3603 4142.5 3606" stroke-width="1"  stroke-linecap="round" fill="none" layerid="3" net="" id="gge1605" locked="0" /><polyline points="4141.5 3603 4142.5 3603" stroke-width="1"  stroke-linecap="round" fill="none" layerid="3" net="" id="gge1606" locked="0" /><polyline points="4142.5 3603 4143.5 3603" stroke-width="1"  stroke-linecap="round" fill="none" layerid="3" net="" id="gge1607" locked="0" /><polyline points="4130.1593 3578.6693 4149.8443 3578.6693 4149.8443 3587.3307 4130.1593 3587.3307 4130.1593 3578.6693" stroke-width="0.8999986"  stroke-linecap="round" fill="none" layerid="3" net="" id="gge1624" locked="0" /><polyline points="4059.8125 3419.87 4063.4665 3419.87 4063.4665 3491.13 4036.1905 3491.13 4036.1905 3419.87 4059.8125 3419.87" stroke-width="1"  stroke-linecap="round" fill="none" layerid="3" net="" id="gge111" locked="0" /><polyline points="4059.8125 3499.87 4063.4665 3499.87 4063.4665 3571.13 4036.1905 3571.13 4036.1905 3499.87 4059.8125 3499.87" stroke-width="1"  stroke-linecap="round" fill="none" layerid="3" net="" id="gge321" locked="0" /><polyline points="4085 3400.5 4075 3400.5 4075 3390.5 4085 3390.5 4085 3398" stroke-width="0.8"  stroke-linecap="round" fill="none" layerid="3" net="" id="gge475" locked="0" /><polyline points="4085 3400.5 4085 3398" stroke-width="0.79921"  stroke-linecap="round" fill="none" layerid="3" net="" id="gge476" locked="0" /><polyline points="4085 3580.5 4075 3580.5 4075 3570.5 4085 3570.5 4085 3578" stroke-width="0.8"  stroke-linecap="round" fill="none" layerid="3" net="" id="gge493" locked="0" /><polyline points="4085 3580.5 4085 3578" stroke-width="0.79921"  stroke-linecap="round" fill="none" layerid="3" net="" id="gge494" locked="0" /><polyline points="4185 3620.4995 4185 3630.4995 4025 3630.4995 4025 3620.4995 4032.5 3620.4995" stroke-width="0.8"  stroke-linecap="round" fill="none" layerid="3" net="" id="gge511" locked="0" /><polyline points="4185 3620.4995 4032.5 3620.4995" stroke-width="0.79921"  stroke-linecap="round" fill="none" layerid="3" net="" id="gge512" locked="0" /><polyline points="4185 3580.5 4185 3610.5 4175 3610.5" stroke-width="1"  stroke-linecap="round" fill="none" layerid="3" net="" id="gge619" locked="0" /><polyline points="4175 3580.5 4175 3610.5" stroke-width="1"  stroke-linecap="round" fill="none" layerid="3" net="" id="gge620" locked="0" /><polyline points="4185 3580.5 4175 3580.5" stroke-width="1"  stroke-linecap="round" fill="none" layerid="3" net="" id="gge621" locked="0" /><polyline points="4185 3590.6907 4175 3590.6907" stroke-width="1"  stroke-linecap="round" fill="none" layerid="3" net="" id="gge622" locked="0" /><polyline points="4132.2269 3392.6654 4112.5418 3392.6654" stroke-width="1"  stroke-linecap="round" fill="none" layerid="3" net="" id="gge651" locked="0" /><polyline points="4167.66 3392.6654 4147.9749 3392.6654" stroke-width="1"  stroke-linecap="round" fill="none" layerid="3" net="" id="gge652" locked="0" /><polyline points="4112.5418 3538.3346 4167.66 3538.3346" stroke-width="1"  stroke-linecap="round" fill="none" layerid="3" net="" id="gge653" locked="0" /><polyline points="4167.66 3538.3346 4167.66 3533.1955" stroke-width="1"  stroke-linecap="round" fill="none" layerid="3" net="" id="gge654" locked="0" /><polyline points="4167.66 3527.8045 4167.66 3523.1955" stroke-width="1"  stroke-linecap="round" fill="none" layerid="3" net="" id="gge655" locked="0" /><polyline points="4167.66 3517.8045 4167.66 3513.1955" stroke-width="1"  stroke-linecap="round" fill="none" layerid="3" net="" id="gge656" locked="0" /><polyline points="4167.66 3507.8045 4167.66 3503.1955" stroke-width="1"  stroke-linecap="round" fill="none" layerid="3" net="" id="gge657" locked="0" /><polyline points="4167.66 3497.8045 4167.66 3493.1955" stroke-width="1"  stroke-linecap="round" fill="none" layerid="3" net="" id="gge658" locked="0" /><polyline points="4167.66 3487.8045 4167.66 3483.1955" stroke-width="1"  stroke-linecap="round" fill="none" layerid="3" net="" id="gge659" locked="0" /><polyline points="4167.66 3477.8045 4167.66 3473.1955" stroke-width="1"  stroke-linecap="round" fill="none" layerid="3" net="" id="gge660" locked="0" /><polyline points="4167.66 3467.8045 4167.66 3463.1955" stroke-width="1"  stroke-linecap="round" fill="none" layerid="3" net="" id="gge661" locked="0" /><polyline points="4167.66 3457.8045 4167.66 3453.1955" stroke-width="1"  stroke-linecap="round" fill="none" layerid="3" net="" id="gge662" locked="0" /><polyline points="4167.66 3447.8045 4167.66 3443.1955" stroke-width="1"  stroke-linecap="round" fill="none" layerid="3" net="" id="gge663" locked="0" /><polyline points="4167.66 3437.8045 4167.66 3433.1955" stroke-width="1"  stroke-linecap="round" fill="none" layerid="3" net="" id="gge664" locked="0" /><polyline points="4167.66 3427.8045 4167.66 3423.1955" stroke-width="1"  stroke-linecap="round" fill="none" layerid="3" net="" id="gge665" locked="0" /><polyline points="4167.66 3417.8045 4167.66 3413.1955" stroke-width="1"  stroke-linecap="round" fill="none" layerid="3" net="" id="gge666" locked="0" /><polyline points="4167.66 3407.8045 4167.66 3403.1955" stroke-width="1"  stroke-linecap="round" fill="none" layerid="3" net="" id="gge667" locked="0" /><polyline points="4167.66 3397.8045 4167.66 3392.6654" stroke-width="1"  stroke-linecap="round" fill="none" layerid="3" net="" id="gge668" locked="0" /><polyline points="4112.5418 3538.3346 4112.5418 3532.9092" stroke-width="1"  stroke-linecap="round" fill="none" layerid="3" net="" id="gge669" locked="0" /><polyline points="4112.5418 3528.0908 4112.5418 3522.9092" stroke-width="1"  stroke-linecap="round" fill="none" layerid="3" net="" id="gge670" locked="0" /><polyline points="4112.5418 3518.0908 4112.5418 3512.9092" stroke-width="1"  stroke-linecap="round" fill="none" layerid="3" net="" id="gge671" locked="0" /><polyline points="4112.5418 3508.0908 4112.5418 3502.9092" stroke-width="1"  stroke-linecap="round" fill="none" layerid="3" net="" id="gge672" locked="0" /><polyline points="4112.5418 3498.0908 4112.5418 3492.9092" stroke-width="1"  stroke-linecap="round" fill="none" layerid="3" net="" id="gge673" locked="0" /><polyline points="4112.5418 3488.0908 4112.5418 3482.9092" stroke-width="1"  stroke-linecap="round" fill="none" layerid="3" net="" id="gge674" locked="0" /><polyline points="4112.5418 3478.0908 4112.5418 3472.9092" stroke-width="1"  stroke-linecap="round" fill="none" layerid="3" net="" id="gge675" locked="0" /><polyline points="4112.5418 3468.0908 4112.5418 3462.9092" stroke-width="1"  stroke-linecap="round" fill="none" layerid="3" net="" id="gge676" locked="0" /><polyline points="4112.5418 3458.0908 4112.5418 3452.9092" stroke-width="1"  stroke-linecap="round" fill="none" layerid="3" net="" id="gge677" locked="0" /><polyline points="4112.5418 3448.0908 4112.5418 3442.9092" stroke-width="1"  stroke-linecap="round" fill="none" layerid="3" net="" id="gge678" locked="0" /><polyline points="4112.5418 3438.0908 4112.5418 3432.9092" stroke-width="1"  stroke-linecap="round" fill="none" layerid="3" net="" id="gge679" locked="0" /><polyline points="4112.5418 3428.0908 4112.5418 3422.9092" stroke-width="1"  stroke-linecap="round" fill="none" layerid="3" net="" id="gge680" locked="0" /><polyline points="4112.5418 3418.0908 4112.5418 3412.9092" stroke-width="1"  stroke-linecap="round" fill="none" layerid="3" net="" id="gge681" locked="0" /><polyline points="4112.5418 3408.0908 4112.5418 3404.95" stroke-width="1"  stroke-linecap="round" fill="none" layerid="3" net="" id="gge682" locked="0" /><polyline points="4112.5418 3396.05 4112.5418 3392.6654" stroke-width="1"  stroke-linecap="round" fill="none" layerid="3" net="" id="gge683" locked="0" /><polyline points="4055 3390.5 4055 3400.5 4035 3400.5 4035 3390.5 4042.5 3390.5" stroke-width="0.8"  stroke-linecap="round" fill="none" layerid="3" net="" id="gge859" locked="0" /><polyline points="4055 3390.5 4042.5 3390.5" stroke-width="0.79921"  stroke-linecap="round" fill="none" layerid="3" net="" id="gge860" locked="0" /><polyline points="4075 3590.5 4075 3600.5 4035 3600.5 4035 3590.5 4042.5 3590.5" stroke-width="0.8"  stroke-linecap="round" fill="none" layerid="3" net="" id="gge875" locked="0" /><polyline points="4075 3590.5 4042.5 3590.5" stroke-width="0.79921"  stroke-linecap="round" fill="none" layerid="3" net="" id="gge876" locked="0" /><g c_partid="part_pcbtext" c_etype="pinpart" c_origin="4047.5,3388" c_rotation="0" c_mirror="0" id="gge1709" locked="0" layerid="3" c_shapetype="group" ><path c_fontsize="4" c_fontfamily="" c_text="I2C" d="M 4047.5 3383.96 L 4047.5 3387.78 M 4048.88 3384.87 L 4048.88 3384.69 L 4049.06 3384.33 L 4049.25 3384.15 L 4049.61 3383.96 L 4050.34 3383.96 L 4050.7 3384.15 L 4050.88 3384.33 L 4051.06 3384.69 L 4051.06 3385.05 L 4050.88 3385.42 L 4050.52 3385.96 L 4048.7 3387.78 L 4051.25 3387.78 M 4055.17 3384.87 L 4054.99 3384.51 L 4054.63 3384.15 L 4054.26 3383.96 L 4053.54 3383.96 L 4053.17 3384.15 L 4052.81 3384.51 L 4052.63 3384.87 L 4052.45 3385.42 L 4052.45 3386.33 L 4052.63 3386.87 L 4052.81 3387.24 L 4053.17 3387.6 L 4053.54 3387.78 L 4054.26 3387.78 L 4054.63 3387.6 L 4054.99 3387.24 L 4055.17 3386.87" fill="none"  stroke-width="0.5"  /></g><g c_partid="part_pcbtext" c_etype="pinpart" c_origin="4120,3390.5" c_rotation="0" c_mirror="0" id="gge1716" locked="0" layerid="3" c_shapetype="group" ><path c_fontsize="4" c_fontfamily="" c_text="28C256" d="M 4120.18 3387.37L4120.18 3387.19 L4120.36 3386.83 L4120.55 3386.65 L4120.91 3386.46 L4121.64 3386.46 L4122 3386.65 L4122.18 3386.83 L4122.36 3387.19 L4122.36 3387.55 L4122.18 3387.92 L4121.82 3388.46 L4120 3390.28 L4122.55 3390.28 M 4124.65 3386.46L4124.11 3386.65 L4123.93 3387.01 L4123.93 3387.37 L4124.11 3387.74 L4124.47 3387.92 L4125.2 3388.1 L4125.75 3388.28 L4126.11 3388.65 L4126.29 3389.01 L4126.29 3389.55 L4126.11 3389.92 L4125.93 3390.1 L4125.38 3390.28 L4124.65 3390.28 L4124.11 3390.1 L4123.93 3389.92 L4123.75 3389.55 L4123.75 3389.01 L4123.93 3388.65 L4124.29 3388.28 L4124.84 3388.1 L4125.56 3387.92 L4125.93 3387.74 L4126.11 3387.37 L4126.11 3387.01 L4125.93 3386.65 L4125.38 3386.46 L4124.65 3386.46 M 4130.22 3387.37L4130.04 3387.01 L4129.67 3386.65 L4129.31 3386.46 L4128.58 3386.46 L4128.22 3386.65 L4127.85 3387.01 L4127.67 3387.37 L4127.49 3387.92 L4127.49 3388.83 L4127.67 3389.37 L4127.85 3389.74 L4128.22 3390.1 L4128.58 3390.28 L4129.31 3390.28 L4129.67 3390.1 L4130.04 3389.74 L4130.22 3389.37 M 4131.6 3387.37L4131.6 3387.19 L4131.78 3386.83 L4131.96 3386.65 L4132.33 3386.46 L4133.05 3386.46 L4133.42 3386.65 L4133.6 3386.83 L4133.78 3387.19 L4133.78 3387.55 L4133.6 3387.92 L4133.24 3388.46 L4131.42 3390.28 L4133.96 3390.28 M 4137.35 3386.46L4135.53 3386.46 L4135.35 3388.1 L4135.53 3387.92 L4136.07 3387.74 L4136.62 3387.74 L4137.16 3387.92 L4137.53 3388.28 L4137.71 3388.83 L4137.71 3389.19 L4137.53 3389.74 L4137.16 3390.1 L4136.62 3390.28 L4136.07 3390.28 L4135.53 3390.1 L4135.35 3389.92 L4135.16 3389.55 M 4141.09 3387.01L4140.91 3386.65 L4140.36 3386.46 L4140 3386.46 L4139.45 3386.65 L4139.09 3387.19 L4138.91 3388.1 L4138.91 3389.01 L4139.09 3389.74 L4139.45 3390.1 L4140 3390.28 L4140.18 3390.28 L4140.73 3390.1 L4141.09 3389.74 L4141.27 3389.19 L4141.27 3389.01 L4141.09 3388.46 L4140.73 3388.1 L4140.18 3387.92 L4140 3387.92 L4139.45 3388.1 L4139.09 3388.46 L4138.91 3389.01 " fill="none"  stroke-width="0.5"  /></g><g c_partid="part_pcbtext" c_etype="pinpart" c_origin="4052.5,3473" c_rotation="90" c_mirror="0" id="gge1720" locked="0" layerid="3" c_shapetype="group" ><path c_fontsize="4" c_fontfamily="" c_text="23017" d="M 4049.37 3472.82L4049.19 3472.82 L4048.83 3472.64 L4048.65 3472.45 L4048.46 3472.09 L4048.46 3471.36 L4048.65 3471 L4048.83 3470.82 L4049.19 3470.64 L4049.55 3470.64 L4049.92 3470.82 L4050.46 3471.18 L4052.28 3473 L4052.28 3470.45 M 4048.46 3468.89L4048.46 3466.89 L4049.92 3467.98 L4049.92 3467.44 L4050.1 3467.07 L4050.28 3466.89 L4050.83 3466.71 L4051.19 3466.71 L4051.74 3466.89 L4052.1 3467.25 L4052.28 3467.8 L4052.28 3468.35 L4052.1 3468.89 L4051.92 3469.07 L4051.55 3469.25 M 4048.46 3464.42L4048.65 3464.96 L4049.19 3465.33 L4050.1 3465.51 L4050.65 3465.51 L4051.55 3465.33 L4052.1 3464.96 L4052.28 3464.42 L4052.28 3464.05 L4052.1 3463.51 L4051.55 3463.15 L4050.65 3462.96 L4050.1 3462.96 L4049.19 3463.15 L4048.65 3463.51 L4048.46 3464.05 L4048.46 3464.42 M 4049.19 3461.76L4049.01 3461.4 L4048.46 3460.85 L4052.28 3460.85 M 4048.46 3457.11L4052.28 3458.93 M 4048.46 3459.65L4048.46 3457.11 " fill="none"  stroke-width="0.5"  /></g><g c_partid="part_pcbtext" c_etype="pinpart" c_origin="4052.5,3548" c_rotation="90" c_mirror="0" id="gge1724" locked="0" layerid="3" c_shapetype="group" ><path c_fontsize="4" c_fontfamily="" c_text="23017" d="M 4049.37 3547.82L4049.19 3547.82 L4048.83 3547.64 L4048.65 3547.45 L4048.46 3547.09 L4048.46 3546.36 L4048.65 3546 L4048.83 3545.82 L4049.19 3545.64 L4049.55 3545.64 L4049.92 3545.82 L4050.46 3546.18 L4052.28 3548 L4052.28 3545.45 M 4048.46 3543.89L4048.46 3541.89 L4049.92 3542.98 L4049.92 3542.44 L4050.1 3542.07 L4050.28 3541.89 L4050.83 3541.71 L4051.19 3541.71 L4051.74 3541.89 L4052.1 3542.25 L4052.28 3542.8 L4052.28 3543.35 L4052.1 3543.89 L4051.92 3544.07 L4051.55 3544.25 M 4048.46 3539.42L4048.65 3539.96 L4049.19 3540.33 L4050.1 3540.51 L4050.65 3540.51 L4051.55 3540.33 L4052.1 3539.96 L4052.28 3539.42 L4052.28 3539.05 L4052.1 3538.51 L4051.55 3538.15 L4050.65 3537.96 L4050.1 3537.96 L4049.19 3538.15 L4048.65 3538.51 L4048.46 3539.05 L4048.46 3539.42 M 4049.19 3536.76L4049.01 3536.4 L4048.46 3535.85 L4052.28 3535.85 M 4048.46 3532.11L4052.28 3533.93 M 4048.46 3534.65L4048.46 3532.11 " fill="none"  stroke-width="0.5"  /></g><g c_partid="part_pcbtext" c_etype="pinpart" c_origin="4102.5,3560.5" c_rotation="0" c_mirror="0" id="gge1728" locked="0" layerid="3" c_shapetype="group" ><path c_fontsize="4" c_fontfamily="" c_text="WR" d="M 4102.5 3556.46L4103.41 3560.28 M 4104.32 3556.46L4103.41 3560.28 M 4104.32 3556.46L4105.23 3560.28 M 4106.14 3556.46L4105.23 3560.28 M 4107.34 3556.46L4107.34 3560.28 M 4107.34 3556.46L4108.97 3556.46 L4109.52 3556.65 L4109.7 3556.83 L4109.88 3557.19 L4109.88 3557.55 L4109.7 3557.92 L4109.52 3558.1 L4108.97 3558.28 L4107.34 3558.28 M 4108.61 3558.28L4109.88 3560.28 " fill="none"  stroke-width="0.5"  /></g><g c_partid="part_pcbtext" c_etype="pinpart" c_origin="4155,3560.5" c_rotation="0" c_mirror="0" id="gge1732" locked="0" layerid="3" c_shapetype="group" ><path c_fontsize="4" c_fontfamily="" c_text="RD" d="M 4155 3556.46L4155 3560.28 M 4155 3556.46L4156.64 3556.46 L4157.18 3556.65 L4157.36 3556.83 L4157.55 3557.19 L4157.55 3557.55 L4157.36 3557.92 L4157.18 3558.1 L4156.64 3558.28 L4155 3558.28 M 4156.27 3558.28L4157.55 3560.28 M 4158.75 3556.46L4158.75 3560.28 M 4158.75 3556.46L4160.02 3556.46 L4160.56 3556.65 L4160.93 3557.01 L4161.11 3557.37 L4161.29 3557.92 L4161.29 3558.83 L4161.11 3559.37 L4160.93 3559.74 L4160.56 3560.1 L4160.02 3560.28 L4158.75 3560.28 " fill="none"  stroke-width="0.5"  /></g><g c_partid="part_pcbtext" c_etype="pinpart" c_origin="4155,3618" c_rotation="0" c_mirror="0" id="gge1736" locked="0" layerid="3" c_shapetype="group" ><path c_fontsize="4" c_fontfamily="" c_text="CONTRAST" d="M 4157.73 3614.87 L 4157.55 3614.51 L 4157.18 3614.15 L 4156.82 3613.96 L 4156.09 3613.96 L 4155.73 3614.15 L 4155.36 3614.51 L 4155.18 3614.87 L 4155 3615.42 L 4155 3616.33 L 4155.18 3616.87 L 4155.36 3617.24 L 4155.73 3617.6 L 4156.09 3617.78 L 4156.82 3617.78 L 4157.18 3617.6 L 4157.55 3617.24 L 4157.73 3616.87 M 4160.02 3613.96 L 4159.65 3614.15 L 4159.29 3614.51 L 4159.11 3614.87 L 4158.93 3615.42 L 4158.93 3616.33 L 4159.11 3616.87 L 4159.29 3617.24 L 4159.65 3617.6 L 4160.02 3617.78 L 4160.75 3617.78 L 4161.11 3617.6 L 4161.47 3617.24 L 4161.65 3616.87 L 4161.84 3616.33 L 4161.84 3615.42 L 4161.65 3614.87 L 4161.47 3614.51 L 4161.11 3614.15 L 4160.75 3613.96 L 4160.02 3613.96 M 4163.04 3613.96 L 4163.04 3617.78 M 4163.04 3613.96 L 4165.58 3617.78 M 4165.58 3613.96 L 4165.58 3617.78 M 4168.05 3613.96 L 4168.05 3617.78 M 4166.78 3613.96 L 4169.33 3613.96 M 4170.53 3613.96 L 4170.53 3617.78 M 4170.53 3613.96 L 4172.16 3613.96 L 4172.71 3614.15 L 4172.89 3614.33 L 4173.07 3614.69 L 4173.07 3615.05 L 4172.89 3615.42 L 4172.71 3615.6 L 4172.16 3615.78 L 4170.53 3615.78 M 4171.8 3615.78 L 4173.07 3617.78 M 4175.73 3613.96 L 4174.27 3617.78 M 4175.73 3613.96 L 4177.18 3617.78 M 4174.82 3616.51 L 4176.64 3616.51 M 4180.93 3614.51 L 4180.56 3614.15 L 4180.02 3613.96 L 4179.29 3613.96 L 4178.75 3614.15 L 4178.38 3614.51 L 4178.38 3614.87 L 4178.56 3615.24 L 4178.75 3615.42 L 4179.11 3615.6 L 4180.2 3615.96 L 4180.56 3616.15 L 4180.75 3616.33 L 4180.93 3616.69 L 4180.93 3617.24 L 4180.56 3617.6 L 4180.02 3617.78 L 4179.29 3617.78 L 4178.75 3617.6 L 4178.38 3617.24 M 4183.4 3613.96 L 4183.4 3617.78 M 4182.13 3613.96 L 4184.67 3613.96" fill="none"  stroke-width="0.5"  /></g><g c_partid="part_pcbtext" c_etype="pinpart" c_origin="4170,3605.5" c_rotation="90" c_mirror="0" id="gge1740" locked="0" layerid="3" c_shapetype="group" ><path c_fontsize="4" c_fontfamily="" c_text="POT 100k" d="M 4165.96 3605.5L4169.78 3605.5 M 4165.96 3605.5L4165.96 3603.86 L4166.15 3603.32 L4166.33 3603.14 L4166.69 3602.95 L4167.24 3602.95 L4167.6 3603.14 L4167.78 3603.32 L4167.96 3603.86 L4167.96 3605.5 M 4165.96 3600.66L4166.15 3601.03 L4166.51 3601.39 L4166.87 3601.57 L4167.42 3601.75 L4168.33 3601.75 L4168.87 3601.57 L4169.24 3601.39 L4169.6 3601.03 L4169.78 3600.66 L4169.78 3599.94 L4169.6 3599.57 L4169.24 3599.21 L4168.87 3599.03 L4168.33 3598.85 L4167.42 3598.85 L4166.87 3599.03 L4166.51 3599.21 L4166.15 3599.57 L4165.96 3599.94 L4165.96 3600.66 M 4165.96 3596.37L4169.78 3596.37 M 4165.96 3597.65L4165.96 3595.1 M 4166.69 3591.1L4166.51 3590.74 L4165.96 3590.19 L4169.78 3590.19 M 4165.96 3587.9L4166.15 3588.45 L4166.69 3588.81 L4167.6 3588.99 L4168.15 3588.99 L4169.05 3588.81 L4169.6 3588.45 L4169.78 3587.9 L4169.78 3587.54 L4169.6 3586.99 L4169.05 3586.63 L4168.15 3586.45 L4167.6 3586.45 L4166.69 3586.63 L4166.15 3586.99 L4165.96 3587.54 L4165.96 3587.9 M 4165.96 3584.15L4166.15 3584.7 L4166.69 3585.06 L4167.6 3585.25 L4168.15 3585.25 L4169.05 3585.06 L4169.6 3584.7 L4169.78 3584.15 L4169.78 3583.79 L4169.6 3583.25 L4169.05 3582.88 L4168.15 3582.7 L4167.6 3582.7 L4166.69 3582.88 L4166.15 3583.25 L4165.96 3583.79 L4165.96 3584.15 M 4165.96 3581.5L4169.78 3581.5 M 4167.24 3579.68L4169.05 3581.5 M 4168.33 3580.77L4169.78 3579.5 " fill="none"  stroke-width="0.5"  /></g><g c_partid="part_pcbtext" c_etype="pinpart" c_origin="4082.5,3618" c_rotation="0" c_mirror="0" id="gge1744" locked="0" layerid="3" c_shapetype="group" ><path c_fontsize="4" c_fontfamily="" c_text="LCD (opt.)" d="M 4082.5 3613.96L4082.5 3617.78 M 4082.5 3617.78L4084.68 3617.78 M 4088.61 3614.87L4088.43 3614.51 L4088.06 3614.15 L4087.7 3613.96 L4086.97 3613.96 L4086.61 3614.15 L4086.25 3614.51 L4086.06 3614.87 L4085.88 3615.42 L4085.88 3616.33 L4086.06 3616.87 L4086.25 3617.24 L4086.61 3617.6 L4086.97 3617.78 L4087.7 3617.78 L4088.06 3617.6 L4088.43 3617.24 L4088.61 3616.87 M 4089.81 3613.96L4089.81 3617.78 M 4089.81 3613.96L4091.08 3613.96 L4091.63 3614.15 L4091.99 3614.51 L4092.17 3614.87 L4092.35 3615.42 L4092.35 3616.33 L4092.17 3616.87 L4091.99 3617.24 L4091.63 3617.6 L4091.08 3617.78 L4089.81 3617.78 M 4097.63 3613.24L4097.26 3613.6 L4096.9 3614.15 L4096.54 3614.87 L4096.35 3615.78 L4096.35 3616.51 L4096.54 3617.42 L4096.9 3618.15 L4097.26 3618.69 L4097.63 3619.05 M 4099.74 3615.24L4099.37 3615.42 L4099.01 3615.78 L4098.83 3616.33 L4098.83 3616.69 L4099.01 3617.24 L4099.37 3617.6 L4099.74 3617.78 L4100.28 3617.78 L4100.65 3617.6 L4101.01 3617.24 L4101.19 3616.69 L4101.19 3616.33 L4101.01 3615.78 L4100.65 3615.42 L4100.28 3615.24 L4099.74 3615.24 M 4102.39 3615.24L4102.39 3619.05 M 4102.39 3615.78L4102.75 3615.42 L4103.12 3615.24 L4103.66 3615.24 L4104.03 3615.42 L4104.39 3615.78 L4104.57 3616.33 L4104.57 3616.69 L4104.39 3617.24 L4104.03 3617.6 L4103.66 3617.78 L4103.12 3617.78 L4102.75 3617.6 L4102.39 3617.24 M 4106.32 3613.96L4106.32 3617.05 L4106.5 3617.6 L4106.86 3617.78 L4107.23 3617.78 M 4105.77 3615.24L4107.05 3615.24 M 4108.61 3616.87L4108.43 3617.05 L4108.61 3617.24 L4108.79 3617.05 L4108.61 3616.87 M 4109.99 3613.24L4110.35 3613.6 L4110.72 3614.15 L4111.08 3614.87 L4111.26 3615.78 L4111.26 3616.51 L4111.08 3617.42 L4110.72 3618.15 L4110.35 3618.69 L4109.99 3619.05 " fill="none"  stroke-width="0.5"  /></g><g c_partid="part_pcbtext" c_etype="pinpart" c_origin="4077.5,3598" c_rotation="0" c_mirror="0" id="gge1748" locked="0" layerid="3" c_shapetype="group" ><path c_fontsize="4" c_fontfamily="" c_text="SD_EN" d="M 4080.05 3594.51L4079.68 3594.15 L4079.14 3593.96 L4078.41 3593.96 L4077.86 3594.15 L4077.5 3594.51 L4077.5 3594.87 L4077.68 3595.24 L4077.86 3595.42 L4078.23 3595.6 L4079.32 3595.96 L4079.68 3596.15 L4079.86 3596.33 L4080.05 3596.69 L4080.05 3597.24 L4079.68 3597.6 L4079.14 3597.78 L4078.41 3597.78 L4077.86 3597.6 L4077.5 3597.24 M 4081.25 3593.96L4081.25 3597.78 M 4081.25 3593.96L4082.52 3593.96 L4083.06 3594.15 L4083.43 3594.51 L4083.61 3594.87 L4083.79 3595.42 L4083.79 3596.33 L4083.61 3596.87 L4083.43 3597.24 L4083.06 3597.6 L4082.52 3597.78 L4081.25 3597.78 M 4084.99 3599.05L4088.26 3599.05 M 4089.46 3593.96L4089.46 3597.78 M 4089.46 3593.96L4091.83 3593.96 M 4089.46 3595.78L4090.92 3595.78 M 4089.46 3597.78L4091.83 3597.78 M 4093.03 3593.96L4093.03 3597.78 M 4093.03 3593.96L4095.57 3597.78 M 4095.57 3593.96L4095.57 3597.78 " fill="none"  stroke-width="0.5"  /></g><g c_partid="part_pcbtext" c_etype="pinpart" c_origin="4122.5,3575.5" c_rotation="0" c_mirror="0" id="gge1752" locked="0" layerid="3" c_shapetype="group" ><path c_fontsize="4" c_fontfamily="" c_text="LED_EN" d="M 4122.5 3571.46 L 4122.5 3575.28 M 4122.5 3575.28 L 4124.68 3575.28 M 4125.88 3571.46 L 4125.88 3575.28 M 4125.88 3571.46 L 4128.25 3571.46 M 4125.88 3573.28 L 4127.34 3573.28 M 4125.88 3575.28 L 4128.25 3575.28 M 4129.45 3571.46 L 4129.45 3575.28 M 4129.45 3571.46 L 4130.72 3571.46 L 4131.26 3571.65 L 4131.63 3572.01 L 4131.81 3572.37 L 4131.99 3572.92 L 4131.99 3573.83 L 4131.81 3574.37 L 4131.63 3574.74 L 4131.26 3575.1 L 4130.72 3575.28 L 4129.45 3575.28 M 4133.19 3576.55 L 4136.46 3576.55 M 4137.66 3571.46 L 4137.66 3575.28 M 4137.66 3571.46 L 4140.03 3571.46 M 4137.66 3573.28 L 4139.12 3573.28 M 4137.66 3575.28 L 4140.03 3575.28 M 4141.23 3571.46 L 4141.23 3575.28 M 4141.23 3571.46 L 4143.77 3575.28 M 4143.77 3571.46 L 4143.77 3575.28" fill="none"  stroke-width="0.5"  /></g><g c_partid="part_pcbtext" c_etype="pinpart" c_origin="4087.5,3578" c_rotation="0" c_mirror="0" id="gge1760" locked="0" layerid="3" c_shapetype="group" ><path c_fontsize="4" c_fontfamily="" c_text="Vss" d="M 4087.5 3573.96L4088.95 3577.78 M 4090.41 3573.96L4088.95 3577.78 M 4093.61 3575.78L4093.43 3575.42 L4092.88 3575.24 L4092.34 3575.24 L4091.79 3575.42 L4091.61 3575.78 L4091.79 3576.15 L4092.15 3576.33 L4093.06 3576.51 L4093.43 3576.69 L4093.61 3577.05 L4093.61 3577.24 L4093.43 3577.6 L4092.88 3577.78 L4092.34 3577.78 L4091.79 3577.6 L4091.61 3577.24 M 4096.81 3575.78L4096.63 3575.42 L4096.08 3575.24 L4095.54 3575.24 L4094.99 3575.42 L4094.81 3575.78 L4094.99 3576.15 L4095.35 3576.33 L4096.26 3576.51 L4096.63 3576.69 L4096.81 3577.05 L4096.81 3577.24 L4096.63 3577.6 L4096.08 3577.78 L4095.54 3577.78 L4094.99 3577.6 L4094.81 3577.24 " fill="none"  stroke-width="0.5"  /></g><g c_partid="part_pcbtext" c_etype="pinpart" c_origin="4087.5,3398" c_rotation="0" c_mirror="0" id="gge1764" locked="0" layerid="3" c_shapetype="group" ><path c_fontsize="4" c_fontfamily="" c_text="Vdd" d="M 4087.5 3393.96L4088.95 3397.78 M 4090.41 3393.96L4088.95 3397.78 M 4093.79 3393.96L4093.79 3397.78 M 4093.79 3395.78L4093.43 3395.42 L4093.06 3395.24 L4092.52 3395.24 L4092.15 3395.42 L4091.79 3395.78 L4091.61 3396.33 L4091.61 3396.69 L4091.79 3397.24 L4092.15 3397.6 L4092.52 3397.78 L4093.06 3397.78 L4093.43 3397.6 L4093.79 3397.24 M 4097.17 3393.96L4097.17 3397.78 M 4097.17 3395.78L4096.81 3395.42 L4096.45 3395.24 L4095.9 3395.24 L4095.54 3395.42 L4095.17 3395.78 L4094.99 3396.33 L4094.99 3396.69 L4095.17 3397.24 L4095.54 3397.6 L4095.9 3397.78 L4096.45 3397.78 L4096.81 3397.6 L4097.17 3397.24 " fill="none"  stroke-width="0.5"  /></g><g c_partid="part_pcbtext" c_etype="pinpart" c_origin="4125,3605.5" c_rotation="0" c_mirror="0" id="gge1768" locked="0" layerid="3" c_shapetype="group" ><path c_fontsize="4" c_fontfamily="" c_text="2k" d="M 4125.18 3602.37 L 4125.18 3602.19 L 4125.36 3601.83 L 4125.55 3601.65 L 4125.91 3601.46 L 4126.64 3601.46 L 4127 3601.65 L 4127.18 3601.83 L 4127.36 3602.19 L 4127.36 3602.55 L 4127.18 3602.92 L 4126.82 3603.46 L 4125 3605.28 L 4127.55 3605.28 M 4128.75 3601.46 L 4128.75 3605.28 M 4130.56 3602.74 L 4128.75 3604.55 M 4129.47 3603.83 L 4130.75 3605.28" fill="none"  stroke-width="0.5"  /></g><g c_partid="part_pcbtext" c_etype="" c_origin="4077.6499,3623.29" c_rotation="0" c_mirror="" id="gge1775" locked="0" layerid="3" c_shapetype="group" display="none"><path c_fontsize="4.5" c_fontfamily="" c_text="0" d="M 4078.8799 3618.75 L 4078.2599 3618.95 L 4077.8499 3619.57 L 4077.6499 3620.59 L 4077.6499 3621.2 L 4077.8499 3622.23 L 4078.2599 3622.84 L 4078.8799 3623.04 L 4079.2899 3623.04 L 4079.8999 3622.84 L 4080.3099 3622.23 L 4080.5099 3621.2 L 4080.5099 3620.59 L 4080.3099 3619.57 L 4079.8999 3618.95 L 4079.2899 3618.75 L 4078.8799 3618.75" fill="none"  stroke-width="0.6" c_note="note_name" /></g><g c_partid="part_pcbtext" c_etype="" c_origin="4062.5,3608" c_rotation="0" c_mirror="" id="gge1777" locked="0" layerid="3" c_shapetype="group" ><path c_fontsize="4.5" c_fontfamily="" c_text="R4" d="M 4062.5 3603.46 L 4062.5 3607.75 M 4062.5 3603.46 L 4064.34 3603.46 L 4064.95 3603.66 L 4065.16 3603.87 L 4065.36 3604.28 L 4065.36 3604.69 L 4065.16 3605.1 L 4064.95 3605.3 L 4064.34 3605.5 L 4062.5 3605.5 M 4063.93 3605.5 L 4065.36 3607.75 M 4068.76 3603.46 L 4066.71 3606.32 L 4069.78 3606.32 M 4068.76 3603.46 L 4068.76 3607.75" fill="none"  stroke-width="0.6" c_note="note_pre" /></g><g c_partid="part_pcbtext" c_etype="" c_origin="4119.8919,3539.51" c_rotation="0" c_mirror="" id="gge1524" locked="0" layerid="3" c_shapetype="group" display="none"><path c_fontsize="4.5" c_fontfamily="" c_text="WR" d="M 4119.8919 3534.97 L 4120.9119 3539.26 M 4121.9419 3534.97 L 4120.9119 3539.26 M 4121.9419 3534.97 L 4122.9619 3539.26 M 4123.9819 3534.97 L 4122.9619 3539.26 M 4125.3319 3534.97 L 4125.3319 3539.26 M 4125.3319 3534.97 L 4127.1719 3534.97 L 4127.7919 3535.17 L 4127.9919 3535.38 L 4128.1919 3535.79 L 4128.1919 3536.2 L 4127.9919 3536.61 L 4127.7919 3536.81 L 4127.1719 3537.01 L 4125.3319 3537.01 M 4126.7619 3537.01 L 4128.1919 3539.26" fill="none"  stroke-width="0.6" c_note="note_name" /></g><g c_partid="part_pcbtext" c_etype="" c_origin="4117.5,3545.5" c_rotation="0" c_mirror="" id="gge1526" locked="0" layerid="3" c_shapetype="group" ><path c_fontsize="4.5" c_fontfamily="" c_text="D1" d="M 4117.5 3540.96 L 4117.5 3545.25 M 4117.5 3540.96 L 4118.93 3540.96 L 4119.55 3541.16 L 4119.95 3541.57 L 4120.16 3541.98 L 4120.36 3542.6 L 4120.36 3543.62 L 4120.16 3544.23 L 4119.95 3544.64 L 4119.55 3545.05 L 4118.93 3545.25 L 4117.5 3545.25 M 4121.71 3541.78 L 4122.12 3541.57 L 4122.74 3540.96 L 4122.74 3545.25" fill="none"  stroke-width="0.6" c_note="note_pre" /></g><g c_partid="part_pcbtext" c_etype="" c_origin="4144.8919,3539.51" c_rotation="0" c_mirror="" id="gge1552" locked="0" layerid="3" c_shapetype="group" display="none"><path c_fontsize="4.5" c_fontfamily="" c_text="RD" d="M 4144.8919 3534.97 L 4144.8919 3539.26 M 4144.8919 3534.97 L 4146.7319 3534.97 L 4147.3419 3535.17 L 4147.5519 3535.38 L 4147.7519 3535.79 L 4147.7519 3536.2 L 4147.5519 3536.61 L 4147.3419 3536.81 L 4146.7319 3537.01 L 4144.8919 3537.01 M 4146.3219 3537.01 L 4147.7519 3539.26 M 4149.1019 3534.97 L 4149.1019 3539.26 M 4149.1019 3534.97 L 4150.5419 3534.97 L 4151.1519 3535.17 L 4151.5619 3535.58 L 4151.7619 3535.99 L 4151.9719 3536.61 L 4151.9719 3537.63 L 4151.7619 3538.24 L 4151.5619 3538.65 L 4151.1519 3539.06 L 4150.5419 3539.26 L 4149.1019 3539.26" fill="none"  stroke-width="0.6" c_note="note_name" /></g><g c_partid="part_pcbtext" c_etype="" c_origin="4142.5,3545.5" c_rotation="0" c_mirror="" id="gge1554" locked="0" layerid="3" c_shapetype="group" ><path c_fontsize="4.5" c_fontfamily="" c_text="D2" d="M 4142.5 3540.96 L 4142.5 3545.25 M 4142.5 3540.96 L 4143.93 3540.96 L 4144.55 3541.16 L 4144.95 3541.57 L 4145.16 3541.98 L 4145.36 3542.6 L 4145.36 3543.62 L 4145.16 3544.23 L 4144.95 3544.64 L 4144.55 3545.05 L 4143.93 3545.25 L 4142.5 3545.25 M 4146.92 3541.98 L 4146.92 3541.78 L 4147.12 3541.37 L 4147.33 3541.16 L 4147.74 3540.96 L 4148.55 3540.96 L 4148.96 3541.16 L 4149.17 3541.37 L 4149.37 3541.78 L 4149.37 3542.19 L 4149.17 3542.6 L 4148.76 3543.21 L 4146.71 3545.25 L 4149.58 3545.25" fill="none"  stroke-width="0.6" c_note="note_pre" /></g><g c_partid="part_pcbtext" c_etype="" c_origin="4122.5,3582.5" c_rotation="0" c_mirror="" id="gge1580" locked="0" layerid="3" c_shapetype="group" display="none"><path c_fontsize="4.5" c_fontfamily="" c_text="2k" d="M 4122.7 3578.98 L 4122.7 3578.78 L 4122.91 3578.37 L 4123.11 3578.16 L 4123.52 3577.96 L 4124.34 3577.96 L 4124.75 3578.16 L 4124.95 3578.37 L 4125.16 3578.78 L 4125.16 3579.19 L 4124.95 3579.6 L 4124.55 3580.21 L 4122.5 3582.25 L 4125.36 3582.25 M 4126.71 3577.96 L 4126.71 3582.25 M 4128.76 3579.39 L 4126.71 3581.44 M 4127.53 3580.62 L 4128.96 3582.25" fill="none"  stroke-width="0.6" c_note="note_name" /></g><g c_partid="part_pcbtext" c_etype="" c_origin="4120,3590.5" c_rotation="0" c_mirror="" id="gge1582" locked="0" layerid="3" c_shapetype="group" ><path c_fontsize="4.5" c_fontfamily="" c_text="R1" d="M 4120 3585.96 L 4120 3590.25 M 4120 3585.96 L 4121.84 3585.96 L 4122.45 3586.16 L 4122.66 3586.37 L 4122.86 3586.78 L 4122.86 3587.19 L 4122.66 3587.6 L 4122.45 3587.8 L 4121.84 3588 L 4120 3588 M 4121.43 3588 L 4122.86 3590.25 M 4124.21 3586.78 L 4124.62 3586.57 L 4125.24 3585.96 L 4125.24 3590.25" fill="none"  stroke-width="0.6" c_note="note_pre" /></g><g c_partid="part_pcbtext" c_etype="" c_origin="4136.04,3620.79" c_rotation="0" c_mirror="" id="gge1600" locked="0" layerid="3" c_shapetype="group" display="none"><path c_fontsize="4.5" c_fontfamily="" c_text="2k" d="M 4136.24 3617.27 L 4136.24 3617.07 L 4136.45 3616.66 L 4136.65 3616.45 L 4137.06 3616.25 L 4137.88 3616.25 L 4138.29 3616.45 L 4138.49 3616.66 L 4138.7 3617.07 L 4138.7 3617.48 L 4138.49 3617.89 L 4138.09 3618.5 L 4136.04 3620.54 L 4138.9 3620.54 M 4140.25 3616.25 L 4140.25 3620.54 M 4142.3 3617.68 L 4140.25 3619.73 M 4141.07 3618.91 L 4142.5 3620.54" fill="none"  stroke-width="0.6" c_note="note_name" /></g><g c_partid="part_pcbtext" c_etype="" c_origin="4142.5,3598" c_rotation="0" c_mirror="" id="gge1602" locked="0" layerid="3" c_shapetype="group" ><path c_fontsize="4.5" c_fontfamily="" c_text="R2" d="M 4142.5 3593.46 L 4142.5 3597.75 M 4142.5 3593.46 L 4144.34 3593.46 L 4144.95 3593.66 L 4145.16 3593.87 L 4145.36 3594.28 L 4145.36 3594.69 L 4145.16 3595.1 L 4144.95 3595.3 L 4144.34 3595.5 L 4142.5 3595.5 M 4143.93 3595.5 L 4145.36 3597.75 M 4146.92 3594.48 L 4146.92 3594.28 L 4147.12 3593.87 L 4147.33 3593.66 L 4147.74 3593.46 L 4148.55 3593.46 L 4148.96 3593.66 L 4149.17 3593.87 L 4149.37 3594.28 L 4149.37 3594.69 L 4149.17 3595.1 L 4148.76 3595.71 L 4146.71 3597.75 L 4149.58 3597.75" fill="none"  stroke-width="0.6" c_note="note_pre" /></g><g c_partid="part_pcbtext" c_etype="" c_origin="4139.49,3570" c_rotation="0" c_mirror="" id="gge1620" locked="0" layerid="3" c_shapetype="group" display="none"><path c_fontsize="4.5" c_fontfamily="" c_text="0" d="M 4140.72 3565.46 L 4140.1 3565.66 L 4139.69 3566.28 L 4139.49 3567.3 L 4139.49 3567.91 L 4139.69 3568.94 L 4140.1 3569.55 L 4140.72 3569.75 L 4141.13 3569.75 L 4141.74 3569.55 L 4142.15 3568.94 L 4142.35 3567.91 L 4142.35 3567.3 L 4142.15 3566.28 L 4141.74 3565.66 L 4141.13 3565.46 L 4140.72 3565.46" fill="none"  stroke-width="0.6" c_note="note_name" /></g><g c_partid="part_pcbtext" c_etype="" c_origin="4150,3585.5" c_rotation="0" c_mirror="" id="gge1622" locked="0" layerid="3" c_shapetype="group" ><path c_fontsize="4.5" c_fontfamily="" c_text="R3" d="M 4150 3580.96 L 4150 3585.25 M 4150 3580.96 L 4151.84 3580.96 L 4152.45 3581.16 L 4152.66 3581.37 L 4152.86 3581.78 L 4152.86 3582.19 L 4152.66 3582.6 L 4152.45 3582.8 L 4151.84 3583 L 4150 3583 M 4151.43 3583 L 4152.86 3585.25 M 4154.62 3580.96 L 4156.87 3580.96 L 4155.65 3582.6 L 4156.26 3582.6 L 4156.67 3582.8 L 4156.87 3583 L 4157.08 3583.62 L 4157.08 3584.03 L 4156.87 3584.64 L 4156.46 3585.05 L 4155.85 3585.25 L 4155.24 3585.25 L 4154.62 3585.05 L 4154.42 3584.85 L 4154.21 3584.44" fill="none"  stroke-width="0.6" c_note="note_pre" /></g><g c_partid="part_pcbtext" c_etype="" c_origin="4086.792,3505.77" c_rotation="90" c_mirror="0" id="gge49" locked="0" layerid="3" c_shapetype="group" display="none"><path c_fontsize="4.5" c_fontfamily="" c_text="MCP23017-SOIC" d="M 4082.2515 3505.77 L 4086.5415 3505.77 M 4082.2515 3505.77 L 4086.5415 3504.13 M 4082.2515 3502.5 L 4086.5415 3504.13 M 4082.2515 3502.5 L 4086.5415 3502.5 M 4083.2715 3498.08 L 4082.8615 3498.28 L 4082.4515 3498.69 L 4082.2515 3499.1 L 4082.2515 3499.92 L 4082.4515 3500.33 L 4082.8615 3500.74 L 4083.2715 3500.94 L 4083.8915 3501.15 L 4084.9115 3501.15 L 4085.5215 3500.94 L 4085.9315 3500.74 L 4086.3415 3500.33 L 4086.5415 3499.92 L 4086.5415 3499.1 L 4086.3415 3498.69 L 4085.9315 3498.28 L 4085.5215 3498.08 M 4082.2515 3496.73 L 4086.5415 3496.73 M 4082.2515 3496.73 L 4082.2515 3494.89 L 4082.4515 3494.27 L 4082.6615 3494.07 L 4083.0715 3493.87 L 4083.6815 3493.87 L 4084.0915 3494.07 L 4084.2915 3494.27 L 4084.5015 3494.89 L 4084.5015 3496.73 M 4083.2715 3492.31 L 4083.0715 3492.31 L 4082.6615 3492.11 L 4082.4515 3491.9 L 4082.2515 3491.49 L 4082.2515 3490.67 L 4082.4515 3490.27 L 4082.6615 3490.06 L 4083.0715 3489.86 L 4083.4815 3489.86 L 4083.8915 3490.06 L 4084.5015 3490.47 L 4086.5415 3492.52 L 4086.5415 3489.65 M 4082.2515 3487.89 L 4082.2515 3485.64 L 4083.8915 3486.87 L 4083.8915 3486.26 L 4084.0915 3485.85 L 4084.2915 3485.64 L 4084.9115 3485.44 L 4085.3215 3485.44 L 4085.9315 3485.64 L 4086.3415 3486.05 L 4086.5415 3486.67 L 4086.5415 3487.28 L 4086.3415 3487.89 L 4086.1415 3488.1 L 4085.7315 3488.3 M 4082.2515 3482.86 L 4082.4515 3483.47 L 4083.0715 3483.88 L 4084.0915 3484.09 L 4084.7015 3484.09 L 4085.7315 3483.88 L 4086.3415 3483.47 L 4086.5415 3482.86 L 4086.5415 3482.45 L 4086.3415 3481.84 L 4085.7315 3481.43 L 4084.7015 3481.22 L 4084.0915 3481.22 L 4083.0715 3481.43 L 4082.4515 3481.84 L 4082.2515 3482.45 L 4082.2515 3482.86 M 4083.0715 3479.87 L 4082.8615 3479.47 L 4082.2515 3478.85 L 4086.5415 3478.85 M 4082.2515 3474.64 L 4086.5415 3476.68 M 4082.2515 3477.5 L 4082.2515 3474.64 M 4084.7015 3473.29 L 4084.7015 3469.61 M 4082.8615 3465.39 L 4082.4515 3465.8 L 4082.2515 3466.42 L 4082.2515 3467.23 L 4082.4515 3467.85 L 4082.8615 3468.26 L 4083.2715 3468.26 L 4083.6815 3468.05 L 4083.8915 3467.85 L 4084.0915 3467.44 L 4084.5015 3466.21 L 4084.7015 3465.8 L 4084.9115 3465.6 L 4085.3215 3465.39 L 4085.9315 3465.39 L 4086.3415 3465.8 L 4086.5415 3466.42 L 4086.5415 3467.23 L 4086.3415 3467.85 L 4085.9315 3468.26 M 4082.2515 3462.82 L 4082.4515 3463.22 L 4082.8615 3463.63 L 4083.2715 3463.84 L 4083.8915 3464.04 L 4084.9115 3464.04 L 4085.5215 3463.84 L 4085.9315 3463.63 L 4086.3415 3463.22 L 4086.5415 3462.82 L 4086.5415 3462 L 4086.3415 3461.59 L 4085.9315 3461.18 L 4085.5215 3460.97 L 4084.9115 3460.77 L 4083.8915 3460.77 L 4083.2715 3460.97 L 4082.8615 3461.18 L 4082.4515 3461.59 L 4082.2515 3462 L 4082.2515 3462.82 M 4082.2515 3459.42 L 4086.5415 3459.42 M 4083.2715 3455 L 4082.8615 3455.21 L 4082.4515 3455.62 L 4082.2515 3456.02 L 4082.2515 3456.84 L 4082.4515 3457.25 L 4082.8615 3457.66 L 4083.2715 3457.87 L 4083.8915 3458.07 L 4084.9115 3458.07 L 4085.5215 3457.87 L 4085.9315 3457.66 L 4086.3415 3457.25 L 4086.5415 3456.84 L 4086.5415 3456.02 L 4086.3415 3455.62 L 4085.9315 3455.21 L 4085.5215 3455" fill="none"  stroke-width="0.6" c_note="note_name" /></g><g c_partid="part_pcbtext" c_etype="" c_origin="4047.5,3425.5" c_rotation="0" c_mirror="0" id="gge51" locked="0" layerid="3" c_shapetype="group" ><path c_fontsize="4.5" c_fontfamily="" c_text="U1" d="M 4047.5 3420.9605 L 4047.5 3424.0305 L 4047.7 3424.6405 L 4048.11 3425.0505 L 4048.73 3425.2505 L 4049.14 3425.2505 L 4049.75 3425.0505 L 4050.16 3424.6405 L 4050.36 3424.0305 L 4050.36 3420.9605 M 4051.71 3421.7805 L 4052.12 3421.5705 L 4052.74 3420.9605 L 4052.74 3425.2505" fill="none"  stroke-width="0.6" c_note="note_pre" /></g><g c_partid="part_pcbtext" c_etype="" c_origin="4086.792,3585.77" c_rotation="90" c_mirror="0" id="gge259" locked="0" layerid="3" c_shapetype="group" display="none"><path c_fontsize="4.5" c_fontfamily="" c_text="MCP23017-SOIC" d="M 4082.2515 3585.77 L 4086.5415 3585.77 M 4082.2515 3585.77 L 4086.5415 3584.13 M 4082.2515 3582.5 L 4086.5415 3584.13 M 4082.2515 3582.5 L 4086.5415 3582.5 M 4083.2715 3578.08 L 4082.8615 3578.28 L 4082.4515 3578.69 L 4082.2515 3579.1 L 4082.2515 3579.92 L 4082.4515 3580.33 L 4082.8615 3580.74 L 4083.2715 3580.94 L 4083.8915 3581.15 L 4084.9115 3581.15 L 4085.5215 3580.94 L 4085.9315 3580.74 L 4086.3415 3580.33 L 4086.5415 3579.92 L 4086.5415 3579.1 L 4086.3415 3578.69 L 4085.9315 3578.28 L 4085.5215 3578.08 M 4082.2515 3576.73 L 4086.5415 3576.73 M 4082.2515 3576.73 L 4082.2515 3574.89 L 4082.4515 3574.27 L 4082.6615 3574.07 L 4083.0715 3573.87 L 4083.6815 3573.87 L 4084.0915 3574.07 L 4084.2915 3574.27 L 4084.5015 3574.89 L 4084.5015 3576.73 M 4083.2715 3572.31 L 4083.0715 3572.31 L 4082.6615 3572.11 L 4082.4515 3571.9 L 4082.2515 3571.49 L 4082.2515 3570.67 L 4082.4515 3570.27 L 4082.6615 3570.06 L 4083.0715 3569.86 L 4083.4815 3569.86 L 4083.8915 3570.06 L 4084.5015 3570.47 L 4086.5415 3572.52 L 4086.5415 3569.65 M 4082.2515 3567.89 L 4082.2515 3565.64 L 4083.8915 3566.87 L 4083.8915 3566.26 L 4084.0915 3565.85 L 4084.2915 3565.64 L 4084.9115 3565.44 L 4085.3215 3565.44 L 4085.9315 3565.64 L 4086.3415 3566.05 L 4086.5415 3566.67 L 4086.5415 3567.28 L 4086.3415 3567.89 L 4086.1415 3568.1 L 4085.7315 3568.3 M 4082.2515 3562.86 L 4082.4515 3563.47 L 4083.0715 3563.88 L 4084.0915 3564.09 L 4084.7015 3564.09 L 4085.7315 3563.88 L 4086.3415 3563.47 L 4086.5415 3562.86 L 4086.5415 3562.45 L 4086.3415 3561.84 L 4085.7315 3561.43 L 4084.7015 3561.22 L 4084.0915 3561.22 L 4083.0715 3561.43 L 4082.4515 3561.84 L 4082.2515 3562.45 L 4082.2515 3562.86 M 4083.0715 3559.87 L 4082.8615 3559.47 L 4082.2515 3558.85 L 4086.5415 3558.85 M 4082.2515 3554.64 L 4086.5415 3556.68 M 4082.2515 3557.5 L 4082.2515 3554.64 M 4084.7015 3553.29 L 4084.7015 3549.61 M 4082.8615 3545.39 L 4082.4515 3545.8 L 4082.2515 3546.42 L 4082.2515 3547.23 L 4082.4515 3547.85 L 4082.8615 3548.26 L 4083.2715 3548.26 L 4083.6815 3548.05 L 4083.8915 3547.85 L 4084.0915 3547.44 L 4084.5015 3546.21 L 4084.7015 3545.8 L 4084.9115 3545.6 L 4085.3215 3545.39 L 4085.9315 3545.39 L 4086.3415 3545.8 L 4086.5415 3546.42 L 4086.5415 3547.23 L 4086.3415 3547.85 L 4085.9315 3548.26 M 4082.2515 3542.82 L 4082.4515 3543.22 L 4082.8615 3543.63 L 4083.2715 3543.84 L 4083.8915 3544.04 L 4084.9115 3544.04 L 4085.5215 3543.84 L 4085.9315 3543.63 L 4086.3415 3543.22 L 4086.5415 3542.82 L 4086.5415 3542 L 4086.3415 3541.59 L 4085.9315 3541.18 L 4085.5215 3540.97 L 4084.9115 3540.77 L 4083.8915 3540.77 L 4083.2715 3540.97 L 4082.8615 3541.18 L 4082.4515 3541.59 L 4082.2515 3542 L 4082.2515 3542.82 M 4082.2515 3539.42 L 4086.5415 3539.42 M 4083.2715 3535 L 4082.8615 3535.21 L 4082.4515 3535.62 L 4082.2515 3536.02 L 4082.2515 3536.84 L 4082.4515 3537.25 L 4082.8615 3537.66 L 4083.2715 3537.87 L 4083.8915 3538.07 L 4084.9115 3538.07 L 4085.5215 3537.87 L 4085.9315 3537.66 L 4086.3415 3537.25 L 4086.5415 3536.84 L 4086.5415 3536.02 L 4086.3415 3535.62 L 4085.9315 3535.21 L 4085.5215 3535" fill="none"  stroke-width="0.6" c_note="note_name" /></g><g c_partid="part_pcbtext" c_etype="" c_origin="4047.5,3505.5" c_rotation="0" c_mirror="0" id="gge261" locked="0" layerid="3" c_shapetype="group" ><path c_fontsize="4.5" c_fontfamily="" c_text="U2" d="M 4047.5 3500.9605 L 4047.5 3504.0305 L 4047.7 3504.6405 L 4048.11 3505.0505 L 4048.73 3505.2505 L 4049.14 3505.2505 L 4049.75 3505.0505 L 4050.16 3504.6405 L 4050.36 3504.0305 L 4050.36 3500.9605 M 4051.92 3501.9805 L 4051.92 3501.7805 L 4052.12 3501.3705 L 4052.33 3501.1605 L 4052.74 3500.9605 L 4053.55 3500.9605 L 4053.96 3501.1605 L 4054.17 3501.3705 L 4054.37 3501.7805 L 4054.37 3502.1905 L 4054.17 3502.6005 L 4053.76 3503.2105 L 4051.71 3505.2505 L 4054.58 3505.2505" fill="none"  stroke-width="0.6" c_note="note_pre" /></g><g c_partid="part_pcbtext" c_etype="" c_origin="4080,3382.9" c_rotation="0" c_mirror="0" id="gge471" locked="0" layerid="3" c_shapetype="group" display="none"><path c_fontsize="4.5" c_fontfamily="" c_text="M_2.54_1x1" d="M 4080 3378.36 L 4080 3382.65 M 4080 3378.36 L 4081.64 3382.65 M 4083.27 3378.36 L 4081.64 3382.65 M 4083.27 3378.36 L 4083.27 3382.65 M 4084.62 3384.09 L 4088.3 3384.09 M 4089.86 3379.38 L 4089.86 3379.18 L 4090.06 3378.77 L 4090.27 3378.56 L 4090.68 3378.36 L 4091.5 3378.36 L 4091.9 3378.56 L 4092.11 3378.77 L 4092.31 3379.18 L 4092.31 3379.59 L 4092.11 3380 L 4091.7 3380.61 L 4089.65 3382.65 L 4092.52 3382.65 M 4094.07 3381.63 L 4093.87 3381.84 L 4094.07 3382.04 L 4094.28 3381.84 L 4094.07 3381.63 M 4098.08 3378.36 L 4096.04 3378.36 L 4095.83 3380.2 L 4096.04 3380 L 4096.65 3379.79 L 4097.26 3379.79 L 4097.88 3380 L 4098.29 3380.4 L 4098.49 3381.02 L 4098.49 3381.43 L 4098.29 3382.04 L 4097.88 3382.45 L 4097.26 3382.65 L 4096.65 3382.65 L 4096.04 3382.45 L 4095.83 3382.25 L 4095.63 3381.84 M 4101.89 3378.36 L 4099.84 3381.22 L 4102.91 3381.22 M 4101.89 3378.36 L 4101.89 3382.65 M 4104.26 3384.09 L 4107.94 3384.09 M 4109.29 3379.18 L 4109.7 3378.97 L 4110.31 3378.36 L 4110.31 3382.65 M 4111.66 3379.79 L 4113.91 3382.65 M 4113.91 3379.79 L 4111.66 3382.65 M 4115.26 3379.18 L 4115.67 3378.97 L 4116.29 3378.36 L 4116.29 3382.65" fill="none"  stroke-width="0.6" c_note="note_name" /></g><g c_partid="part_pcbtext" c_etype="" c_origin="4077.5,3388" c_rotation="0" c_mirror="0" id="gge473" locked="0" layerid="3" c_shapetype="group" ><path c_fontsize="4.5" c_fontfamily="" c_text="J3" d="M 4079.55 3383.46 L 4079.55 3386.73 L 4079.34 3387.35 L 4079.14 3387.55 L 4078.73 3387.75 L 4078.32 3387.75 L 4077.91 3387.55 L 4077.7 3387.35 L 4077.5 3386.73 L 4077.5 3386.32 M 4081.3 3383.46 L 4083.55 3383.46 L 4082.33 3385.1 L 4082.94 3385.1 L 4083.35 3385.3 L 4083.55 3385.5 L 4083.76 3386.12 L 4083.76 3386.53 L 4083.55 3387.14 L 4083.15 3387.55 L 4082.53 3387.75 L 4081.92 3387.75 L 4081.3 3387.55 L 4081.1 3387.35 L 4080.9 3386.94" fill="none"  stroke-width="0.6" c_note="note_pre" /></g><g c_partid="part_pcbtext" c_etype="" c_origin="4080,3562.9" c_rotation="0" c_mirror="0" id="gge489" locked="0" layerid="3" c_shapetype="group" display="none"><path c_fontsize="4.5" c_fontfamily="" c_text="M_2.54_1x1" d="M 4080 3558.36 L 4080 3562.65 M 4080 3558.36 L 4081.64 3562.65 M 4083.27 3558.36 L 4081.64 3562.65 M 4083.27 3558.36 L 4083.27 3562.65 M 4084.62 3564.09 L 4088.3 3564.09 M 4089.86 3559.38 L 4089.86 3559.18 L 4090.06 3558.77 L 4090.27 3558.56 L 4090.68 3558.36 L 4091.5 3558.36 L 4091.9 3558.56 L 4092.11 3558.77 L 4092.31 3559.18 L 4092.31 3559.59 L 4092.11 3560 L 4091.7 3560.61 L 4089.65 3562.65 L 4092.52 3562.65 M 4094.07 3561.63 L 4093.87 3561.84 L 4094.07 3562.04 L 4094.28 3561.84 L 4094.07 3561.63 M 4098.08 3558.36 L 4096.04 3558.36 L 4095.83 3560.2 L 4096.04 3560 L 4096.65 3559.79 L 4097.26 3559.79 L 4097.88 3560 L 4098.29 3560.4 L 4098.49 3561.02 L 4098.49 3561.43 L 4098.29 3562.04 L 4097.88 3562.45 L 4097.26 3562.65 L 4096.65 3562.65 L 4096.04 3562.45 L 4095.83 3562.25 L 4095.63 3561.84 M 4101.89 3558.36 L 4099.84 3561.22 L 4102.91 3561.22 M 4101.89 3558.36 L 4101.89 3562.65 M 4104.26 3564.09 L 4107.94 3564.09 M 4109.29 3559.18 L 4109.7 3558.97 L 4110.31 3558.36 L 4110.31 3562.65 M 4111.66 3559.79 L 4113.91 3562.65 M 4113.91 3559.79 L 4111.66 3562.65 M 4115.26 3559.18 L 4115.67 3558.97 L 4116.29 3558.36 L 4116.29 3562.65" fill="none"  stroke-width="0.6" c_note="note_name" /></g><g c_partid="part_pcbtext" c_etype="" c_origin="4077.5,3568" c_rotation="0" c_mirror="0" id="gge491" locked="0" layerid="3" c_shapetype="group" ><path c_fontsize="4.5" c_fontfamily="" c_text="J4" d="M 4079.55 3563.46 L 4079.55 3566.73 L 4079.34 3567.35 L 4079.14 3567.55 L 4078.73 3567.75 L 4078.32 3567.75 L 4077.91 3567.55 L 4077.7 3567.35 L 4077.5 3566.73 L 4077.5 3566.32 M 4082.94 3563.46 L 4080.9 3566.32 L 4083.96 3566.32 M 4082.94 3563.46 L 4082.94 3567.75" fill="none"  stroke-width="0.6" c_note="note_pre" /></g><g c_partid="part_pcbtext" c_etype="" c_origin="4103.961,3612.578" c_rotation="0" c_mirror="0" id="gge507" locked="0" layerid="3" c_shapetype="group" display="none"><path c_fontsize="4.5" c_fontfamily="" c_text="F_2.54_1x16" d="M 4103.9605 3608.038 L 4103.9605 3612.328 M 4103.9605 3608.038 L 4106.6205 3608.038 M 4103.9605 3610.078 L 4105.6005 3610.078 M 4107.9705 3613.768 L 4111.6505 3613.768 M 4113.2105 3609.058 L 4113.2105 3608.858 L 4113.4105 3608.448 L 4113.6105 3608.238 L 4114.0205 3608.038 L 4114.8405 3608.038 L 4115.2505 3608.238 L 4115.4605 3608.448 L 4115.6605 3608.858 L 4115.6605 3609.268 L 4115.4605 3609.678 L 4115.0505 3610.288 L 4113.0005 3612.328 L 4115.8605 3612.328 M 4117.4205 3611.308 L 4117.2105 3611.518 L 4117.4205 3611.718 L 4117.6205 3611.518 L 4117.4205 3611.308 M 4121.4305 3608.038 L 4119.3805 3608.038 L 4119.1805 3609.878 L 4119.3805 3609.678 L 4120.0005 3609.468 L 4120.6105 3609.468 L 4121.2205 3609.678 L 4121.6305 3610.078 L 4121.8405 3610.698 L 4121.8405 3611.108 L 4121.6305 3611.718 L 4121.2205 3612.128 L 4120.6105 3612.328 L 4120.0005 3612.328 L 4119.3805 3612.128 L 4119.1805 3611.928 L 4118.9705 3611.518 M 4125.2305 3608.038 L 4123.1905 3610.898 L 4126.2605 3610.898 M 4125.2305 3608.038 L 4125.2305 3612.328 M 4127.6105 3613.768 L 4131.2905 3613.768 M 4132.6405 3608.858 L 4133.0505 3608.648 L 4133.6605 3608.038 L 4133.6605 3612.328 M 4135.0105 3609.468 L 4137.2605 3612.328 M 4137.2605 3609.468 L 4135.0105 3612.328 M 4138.6105 3608.858 L 4139.0205 3608.648 L 4139.6305 3608.038 L 4139.6305 3612.328 M 4143.4405 3608.648 L 4143.2305 3608.238 L 4142.6205 3608.038 L 4142.2105 3608.038 L 4141.6005 3608.238 L 4141.1905 3608.858 L 4140.9805 3609.878 L 4140.9805 3610.898 L 4141.1905 3611.718 L 4141.6005 3612.128 L 4142.2105 3612.328 L 4142.4105 3612.328 L 4143.0305 3612.128 L 4143.4405 3611.718 L 4143.6405 3611.108 L 4143.6405 3610.898 L 4143.4405 3610.288 L 4143.0305 3609.878 L 4142.4105 3609.678 L 4142.2105 3609.678 L 4141.6005 3609.878 L 4141.1905 3610.288 L 4140.9805 3610.898" fill="none"  stroke-width="0.6" c_note="note_name" /></g><g c_partid="part_pcbtext" c_etype="" c_origin="4072.5,3618" c_rotation="0" c_mirror="0" id="gge509" locked="0" layerid="3" c_shapetype="group" ><path c_fontsize="4.5" c_fontfamily="" c_text="J5" d="M 4074.5495 3613.46 L 4074.5495 3616.73 L 4074.3395 3617.35 L 4074.1395 3617.55 L 4073.7295 3617.75 L 4073.3195 3617.75 L 4072.9095 3617.55 L 4072.6995 3617.35 L 4072.4995 3616.73 L 4072.4995 3616.32 M 4078.3495 3613.46 L 4076.2995 3613.46 L 4076.0995 3615.3 L 4076.2995 3615.1 L 4076.9195 3614.89 L 4077.5295 3614.89 L 4078.1495 3615.1 L 4078.5495 3615.5 L 4078.7595 3616.12 L 4078.7595 3616.53 L 4078.5495 3617.14 L 4078.1495 3617.55 L 4077.5295 3617.75 L 4076.9195 3617.75 L 4076.2995 3617.55 L 4076.0995 3617.35 L 4075.8995 3616.94" fill="none"  stroke-width="0.6" c_note="note_pre" /></g><g c_partid="part_pcbtext" c_etype="" c_origin="4196.35,3632.01" c_rotation="90" c_mirror="0" id="gge615" locked="0" layerid="3" c_shapetype="group" display="none"><path c_fontsize="4.5" c_fontfamily="" c_text="F_2.54_1x3" d="M 4191.8101 3632.0098 L 4196.1001 3632.0098 M 4191.8101 3632.0098 L 4191.8101 3629.3498 M 4193.8501 3632.0098 L 4193.8501 3630.3698 M 4197.5401 3627.9998 L 4197.5401 3624.3198 M 4192.8301 3622.7598 L 4192.6301 3622.7598 L 4192.2201 3622.5598 L 4192.0101 3622.3598 L 4191.8101 3621.9498 L 4191.8101 3621.1298 L 4192.0101 3620.7198 L 4192.2201 3620.5098 L 4192.6301 3620.3098 L 4193.0401 3620.3098 L 4193.4501 3620.5098 L 4194.0601 3620.9198 L 4196.1001 3622.9698 L 4196.1001 3620.1098 M 4195.0801 3618.5498 L 4195.2901 3618.7598 L 4195.4901 3618.5498 L 4195.2901 3618.3498 L 4195.0801 3618.5498 M 4191.8101 3614.5398 L 4191.8101 3616.5898 L 4193.6501 3616.7898 L 4193.4501 3616.5898 L 4193.2401 3615.9698 L 4193.2401 3615.3598 L 4193.4501 3614.7498 L 4193.8501 3614.3398 L 4194.4701 3614.1298 L 4194.8801 3614.1298 L 4195.4901 3614.3398 L 4195.9001 3614.7498 L 4196.1001 3615.3598 L 4196.1001 3615.9698 L 4195.9001 3616.5898 L 4195.7001 3616.7898 L 4195.2901 3616.9998 M 4191.8101 3610.7398 L 4194.6701 3612.7798 L 4194.6701 3609.7098 M 4191.8101 3610.7398 L 4196.1001 3610.7398 M 4197.5401 3608.3598 L 4197.5401 3604.6798 M 4192.6301 3603.3298 L 4192.4201 3602.9198 L 4191.8101 3602.3098 L 4196.1001 3602.3098 M 4193.2401 3600.9598 L 4196.1001 3598.7098 M 4193.2401 3598.7098 L 4196.1001 3600.9598 M 4191.8101 3596.9498 L 4191.8101 3594.6998 L 4193.4501 3595.9298 L 4193.4501 3595.3098 L 4193.6501 3594.9098 L 4193.8501 3594.6998 L 4194.4701 3594.4998 L 4194.8801 3594.4998 L 4195.4901 3594.6998 L 4195.9001 3595.1098 L 4196.1001 3595.7198 L 4196.1001 3596.3398 L 4195.9001 3596.9498 L 4195.7001 3597.1598 L 4195.2901 3597.3598" fill="none"  stroke-width="0.6" c_note="note_name" /></g><g c_partid="part_pcbtext" c_etype="" c_origin="4177.5,3578" c_rotation="0" c_mirror="0" id="gge617" locked="0" layerid="3" c_shapetype="group" ><path c_fontsize="4.5" c_fontfamily="" c_text="J6" d="M 4179.55 3573.46 L 4179.55 3576.73 L 4179.34 3577.35 L 4179.14 3577.55 L 4178.73 3577.75 L 4178.32 3577.75 L 4177.91 3577.55 L 4177.7 3577.35 L 4177.5 3576.73 L 4177.5 3576.32 M 4183.35 3574.07 L 4183.15 3573.66 L 4182.53 3573.46 L 4182.12 3573.46 L 4181.51 3573.66 L 4181.1 3574.28 L 4180.9 3575.3 L 4180.9 3576.32 L 4181.1 3577.14 L 4181.51 3577.55 L 4182.12 3577.75 L 4182.33 3577.75 L 4182.94 3577.55 L 4183.35 3577.14 L 4183.55 3576.53 L 4183.55 3576.32 L 4183.35 3575.71 L 4182.94 3575.3 L 4182.33 3575.1 L 4182.12 3575.1 L 4181.51 3575.3 L 4181.1 3575.71 L 4180.9 3576.32" fill="none"  stroke-width="0.6" c_note="note_pre" /></g><g c_partid="part_pcbtext" c_etype="" c_origin="4187.49,3488.93" c_rotation="90" c_mirror="0" id="gge647" locked="0" layerid="3" c_shapetype="group" display="none"><path c_fontsize="4.5" c_fontfamily="" c_text="28C256" d="M 4183.97 3488.7302 L 4183.77 3488.7302 L 4183.36 3488.5202 L 4183.15 3488.3202 L 4182.95 3487.9102 L 4182.95 3487.0902 L 4183.15 3486.6802 L 4183.36 3486.4802 L 4183.77 3486.2702 L 4184.18 3486.2702 L 4184.59 3486.4802 L 4185.2 3486.8802 L 4187.24 3488.9302 L 4187.24 3486.0702 M 4182.95 3483.6902 L 4183.15 3484.3102 L 4183.56 3484.5102 L 4183.97 3484.5102 L 4184.38 3484.3102 L 4184.59 3483.9002 L 4184.79 3483.0802 L 4184.99 3482.4702 L 4185.4 3482.0602 L 4185.81 3481.8502 L 4186.43 3481.8502 L 4186.84 3482.0602 L 4187.04 3482.2602 L 4187.24 3482.8802 L 4187.24 3483.6902 L 4187.04 3484.3102 L 4186.84 3484.5102 L 4186.43 3484.7202 L 4185.81 3484.7202 L 4185.4 3484.5102 L 4184.99 3484.1002 L 4184.79 3483.4902 L 4184.59 3482.6702 L 4184.38 3482.2602 L 4183.97 3482.0602 L 4183.56 3482.0602 L 4183.15 3482.2602 L 4182.95 3482.8802 L 4182.95 3483.6902 M 4183.97 3477.4302 L 4183.56 3477.6402 L 4183.15 3478.0502 L 4182.95 3478.4602 L 4182.95 3479.2802 L 4183.15 3479.6802 L 4183.56 3480.0902 L 4183.97 3480.3002 L 4184.59 3480.5002 L 4185.61 3480.5002 L 4186.22 3480.3002 L 4186.63 3480.0902 L 4187.04 3479.6802 L 4187.24 3479.2802 L 4187.24 3478.4602 L 4187.04 3478.0502 L 4186.63 3477.6402 L 4186.22 3477.4302 M 4183.97 3475.8802 L 4183.77 3475.8802 L 4183.36 3475.6802 L 4183.15 3475.4702 L 4182.95 3475.0602 L 4182.95 3474.2402 L 4183.15 3473.8302 L 4183.36 3473.6302 L 4183.77 3473.4302 L 4184.18 3473.4302 L 4184.59 3473.6302 L 4185.2 3474.0402 L 4187.24 3476.0802 L 4187.24 3473.2202 M 4182.95 3469.4202 L 4182.95 3471.4602 L 4184.79 3471.6702 L 4184.59 3471.4602 L 4184.38 3470.8502 L 4184.38 3470.2302 L 4184.59 3469.6202 L 4184.99 3469.2102 L 4185.61 3469.0102 L 4186.02 3469.0102 L 4186.63 3469.2102 L 4187.04 3469.6202 L 4187.24 3470.2302 L 4187.24 3470.8502 L 4187.04 3471.4602 L 4186.84 3471.6702 L 4186.43 3471.8702 M 4183.56 3465.2002 L 4183.15 3465.4102 L 4182.95 3466.0202 L 4182.95 3466.4302 L 4183.15 3467.0402 L 4183.77 3467.4502 L 4184.79 3467.6602 L 4185.81 3467.6602 L 4186.63 3467.4502 L 4187.04 3467.0402 L 4187.24 3466.4302 L 4187.24 3466.2302 L 4187.04 3465.6102 L 4186.63 3465.2002 L 4186.02 3465.0002 L 4185.81 3465.0002 L 4185.2 3465.2002 L 4184.79 3465.6102 L 4184.59 3466.2302 L 4184.59 3466.4302 L 4184.79 3467.0402 L 4185.2 3467.4502 L 4185.81 3467.6602" fill="none"  stroke-width="0.6" c_note="note_name" /></g><g c_partid="part_pcbtext" c_etype="" c_origin="4155,3400.5" c_rotation="0" c_mirror="0" id="gge649" locked="0" layerid="3" c_shapetype="group" ><path c_fontsize="4.5" c_fontfamily="" c_text="U3" d="M 4155 3395.9601 L 4155 3399.0301 L 4155.2 3399.6401 L 4155.61 3400.0501 L 4156.23 3400.2501 L 4156.64 3400.2501 L 4157.25 3400.0501 L 4157.66 3399.6401 L 4157.86 3399.0301 L 4157.86 3395.9601 M 4159.62 3395.9601 L 4161.87 3395.9601 L 4160.65 3397.6001 L 4161.26 3397.6001 L 4161.67 3397.8001 L 4161.87 3398.0001 L 4162.08 3398.6201 L 4162.08 3399.0301 L 4161.87 3399.6401 L 4161.46 3400.0501 L 4160.85 3400.2501 L 4160.24 3400.2501 L 4159.62 3400.0501 L 4159.42 3399.8501 L 4159.21 3399.4401" fill="none"  stroke-width="0.6" c_note="note_pre" /></g><g c_partid="part_pcbtext" c_etype="" c_origin="4027.5,3396" c_rotation="90" c_mirror="0" id="gge3" locked="0" layerid="3" c_shapetype="group" display="none"><path c_fontsize="4.5" c_fontfamily="" c_text="M_2.54_1x2" d="M 4022.96 3396L4027.25 3396 M 4022.96 3396L4027.25 3394.36 M 4022.96 3392.73L4027.25 3394.36 M 4022.96 3392.73L4027.25 3392.73 M 4028.69 3391.38L4028.69 3387.7 M 4023.98 3386.14L4023.78 3386.14 L4023.37 3385.94 L4023.16 3385.73 L4022.96 3385.32 L4022.96 3384.5 L4023.16 3384.1 L4023.37 3383.89 L4023.78 3383.69 L4024.19 3383.69 L4024.6 3383.89 L4025.21 3384.3 L4027.25 3386.35 L4027.25 3383.48 M 4026.23 3381.93L4026.44 3382.13 L4026.64 3381.93 L4026.44 3381.72 L4026.23 3381.93 M 4022.96 3377.92L4022.96 3379.96 L4024.8 3380.17 L4024.6 3379.96 L4024.39 3379.35 L4024.39 3378.74 L4024.6 3378.12 L4025 3377.71 L4025.62 3377.51 L4026.03 3377.51 L4026.64 3377.71 L4027.05 3378.12 L4027.25 3378.74 L4027.25 3379.35 L4027.05 3379.96 L4026.85 3380.17 L4026.44 3380.37 M 4022.96 3374.11L4025.82 3376.16 L4025.82 3373.09 M 4022.96 3374.11L4027.25 3374.11 M 4028.69 3371.74L4028.69 3368.06 M 4023.78 3366.71L4023.57 3366.3 L4022.96 3365.69 L4027.25 3365.69 M 4024.39 3364.34L4027.25 3362.09 M 4024.39 3362.09L4027.25 3364.34 M 4023.98 3360.53L4023.78 3360.53 L4023.37 3360.33 L4023.16 3360.12 L4022.96 3359.71 L4022.96 3358.9 L4023.16 3358.49 L4023.37 3358.28 L4023.78 3358.08 L4024.19 3358.08 L4024.6 3358.28 L4025.21 3358.69 L4027.25 3360.74 L4027.25 3357.87 " fill="none"  stroke-width="0.6" c_note="note_name" /></g><g c_partid="part_pcbtext" c_etype="" c_origin="4035,3388" c_rotation="0" c_mirror="0" id="gge5" locked="0" layerid="3" c_shapetype="group" ><path c_fontsize="4.5" c_fontfamily="" c_text="J1" d="M 4037.05 3383.46 L 4037.05 3386.73 L 4036.84 3387.35 L 4036.64 3387.55 L 4036.23 3387.75 L 4035.82 3387.75 L 4035.41 3387.55 L 4035.2 3387.35 L 4035 3386.73 L 4035 3386.32 M 4038.4 3384.28 L 4038.8 3384.07 L 4039.42 3383.46 L 4039.42 3387.75" fill="none"  stroke-width="0.6" c_note="note_pre" /></g><g c_partid="part_pcbtext" c_etype="" c_origin="4055,3582.5" c_rotation="0" c_mirror="0" id="gge21" locked="0" layerid="3" c_shapetype="group" display="none"><path c_fontsize="4.5" c_fontfamily="" c_text="M_2.54_1x2" d="M 4055 3577.96L4055 3582.25 M 4055 3577.96L4056.64 3582.25 M 4058.27 3577.96L4056.64 3582.25 M 4058.27 3577.96L4058.27 3582.25 M 4059.62 3583.69L4063.3 3583.69 M 4064.86 3578.98L4064.86 3578.78 L4065.06 3578.37 L4065.27 3578.16 L4065.68 3577.96 L4066.5 3577.96 L4066.9 3578.16 L4067.11 3578.37 L4067.31 3578.78 L4067.31 3579.19 L4067.11 3579.6 L4066.7 3580.21 L4064.65 3582.25 L4067.52 3582.25 M 4069.07 3581.23L4068.87 3581.44 L4069.07 3581.64 L4069.28 3581.44 L4069.07 3581.23 M 4073.08 3577.96L4071.04 3577.96 L4070.83 3579.8 L4071.04 3579.6 L4071.65 3579.39 L4072.26 3579.39 L4072.88 3579.6 L4073.29 3580 L4073.49 3580.62 L4073.49 3581.03 L4073.29 3581.64 L4072.88 3582.05 L4072.26 3582.25 L4071.65 3582.25 L4071.04 3582.05 L4070.83 3581.85 L4070.63 3581.44 M 4076.89 3577.96L4074.84 3580.82 L4077.91 3580.82 M 4076.89 3577.96L4076.89 3582.25 M 4079.26 3583.69L4082.94 3583.69 M 4084.29 3578.78L4084.7 3578.57 L4085.31 3577.96 L4085.31 3582.25 M 4086.66 3579.39L4088.91 3582.25 M 4088.91 3579.39L4086.66 3582.25 M 4090.47 3578.98L4090.47 3578.78 L4090.67 3578.37 L4090.88 3578.16 L4091.29 3577.96 L4092.1 3577.96 L4092.51 3578.16 L4092.72 3578.37 L4092.92 3578.78 L4092.92 3579.19 L4092.72 3579.6 L4092.31 3580.21 L4090.26 3582.25 L4093.13 3582.25 " fill="none"  stroke-width="0.6" c_note="note_name" /></g><g c_partid="part_pcbtext" c_etype="" c_origin="4042.5,3588" c_rotation="0" c_mirror="0" id="gge23" locked="0" layerid="3" c_shapetype="group" ><path c_fontsize="4.5" c_fontfamily="" c_text="J2" d="M 4044.55 3583.46 L 4044.55 3586.73 L 4044.34 3587.35 L 4044.14 3587.55 L 4043.73 3587.75 L 4043.32 3587.75 L 4042.91 3587.55 L 4042.7 3587.35 L 4042.5 3586.73 L 4042.5 3586.32 M 4046.1 3584.48 L 4046.1 3584.28 L 4046.3 3583.87 L 4046.51 3583.66 L 4046.92 3583.46 L 4047.74 3583.46 L 4048.15 3583.66 L 4048.35 3583.87 L 4048.55 3584.28 L 4048.55 3584.69 L 4048.35 3585.1 L 4047.94 3585.71 L 4045.9 3587.75 L 4048.76 3587.75" fill="none"  stroke-width="0.6" c_note="note_pre" /></g><path d="M 4126.1811 3551.563 A 7.4283 7.4283 0 0 0 4113.1606 3552.337" locked="0"  fill="none" stroke-width="1" c_helper_type="arc2" net="" layerid="3" id="gge1536" /><path d="M 4113.189 3558.6496 A 7.397 7.397 0 0 0 4126.2576 3559.2504" locked="0"  fill="none" stroke-width="1" c_helper_type="arc2" net="" layerid="3" id="gge1537" /><path d="M 4151.1811 3551.563 A 7.4283 7.4283 0 0 0 4138.1606 3552.337" locked="0"  fill="none" stroke-width="1" c_helper_type="arc2" net="" layerid="3" id="gge1564" /><path d="M 4138.189 3558.6496 A 7.397 7.397 0 0 0 4151.2576 3559.2504" locked="0"  fill="none" stroke-width="1" c_helper_type="arc2" net="" layerid="3" id="gge1565" /><path d="M 4041.3115 3423.81 A 1.1811 1.1811 0 1 0 4041.3115 3423.83" locked="0"  fill="none" stroke-width="2.3622" c_helper_type="arc2" net="" layerid="3" id="gge112" /><path d="M 4028.9115 3419.67 A 0.5906 0.5906 0 1 0 4028.9115 3419.68" locked="0"  fill="none" stroke-width="1.1811" c_helper_type="arc2" net="" layerid="3" id="gge113" /><path d="M 4041.3115 3503.81 A 1.1811 1.1811 0 1 0 4041.3115 3503.83" locked="0"  fill="none" stroke-width="2.3622" c_helper_type="arc2" net="" layerid="3" id="gge322" /><path d="M 4028.9115 3499.67 A 0.5906 0.5906 0 1 0 4028.9115 3499.68" locked="0"  fill="none" stroke-width="1.1811" c_helper_type="arc2" net="" layerid="3" id="gge323" /><path d="M 4147.9749 3392.6653 A 7.874 7.874 0 0 1 4132.2269 3392.6653" locked="0"  fill="none" stroke-width="1" c_helper_type="arc2" net="" layerid="3" id="gge684" /><path d="M 4108.2766 3392.2721 A 1.1811 1.1811 0 1 0 4108.2965 3392.2721" locked="0"  fill="none" stroke-width="2.3622" c_helper_type="arc2" net="" layerid="3" id="gge685" /><circle cx="4118.447" cy="3398.177" r="2.5" stroke-width="1" fill="none" layerid="3" id="gge686" locked="0"  /><polyline points="4020 3375.5 4189 3375.5 4190 3375.5 4190 3635.5 4020 3635.5 4020 3375.5" stroke-width="1"  stroke-linecap="round" fill="none" layerid="10" net="" id="gge468" locked="0" /></svg>